<?xml version="1.0" encoding="UTF-8" standalone="no"?>
<!DOCTYPE svg PUBLIC "-//W3C//DTD SVG 1.1//EN" "http://www.w3.org/Graphics/SVG/1.1/DTD/svg11.dtd">
<svg xmlns="http://www.w3.org/2000/svg" xmlns:xlink="http://www.w3.org/1999/xlink" version="1.1" width="327.673pt" height="192.006pt" viewBox="0 0 327.673 192.006">
<path transform="matrix(1,0,0,-1,.199,184.986)" stroke-width="1" stroke-linecap="butt" stroke-miterlimit="10" stroke-linejoin="miter" fill="none" stroke="#cbcbcb" d="M 31.51825 0 L 31.51825 171.16667 M 63.03651 0 L 63.03651 171.16667 M 94.55478 0 L 94.55478 171.16667 M 126.07304 0 L 126.07304 171.16667 M 189.10956 0 L 189.10956 171.16667 M 220.62783 0 L 220.62783 171.16667 M 252.14609 0 L 252.14609 171.16667 M 283.66435 0 L 283.66435 171.16667 "/>
<path transform="matrix(1,0,0,-1,.199,184.986)" stroke-width="1" stroke-linecap="butt" stroke-miterlimit="10" stroke-linejoin="miter" fill="none" stroke="#cbcbcb" d="M 0 0 L 315.17759 0 M 0 24.45238 L 315.17759 24.45238 M 0 48.90475 L 315.17759 48.90475 M 0 97.80952 L 315.17759 97.80952 M 0 122.2619 L 315.17759 122.2619 M 0 146.71428 L 315.17759 146.71428 M 0 171.16667 L 315.17759 171.16667 "/>
<path transform="matrix(1,0,0,-1,.199,184.986)" stroke-width="1" stroke-linecap="butt" stroke-miterlimit="10" stroke-linejoin="miter" fill="none" stroke="#929292" d="M 31.51825 71.23123 L 31.51825 75.48303 M 63.03651 71.23123 L 63.03651 75.48303 M 94.55478 71.23123 L 94.55478 75.48303 M 126.07304 71.23123 L 126.07304 75.48303 M 189.10956 71.23123 L 189.10956 75.48303 M 220.62783 71.23123 L 220.62783 75.48303 M 252.14609 71.23123 L 252.14609 75.48303 M 283.66435 71.23123 L 283.66435 75.48303 "/>
<path transform="matrix(1,0,0,-1,.199,184.986)" stroke-width="1" stroke-linecap="butt" stroke-miterlimit="10" stroke-linejoin="miter" fill="none" stroke="#929292" d="M 155.4654 0 L 159.7172 0 M 155.4654 24.45238 L 159.7172 24.45238 M 155.4654 48.90475 L 159.7172 48.90475 M 155.4654 97.80952 L 159.7172 97.80952 M 155.4654 122.2619 L 159.7172 122.2619 M 155.4654 146.71428 L 159.7172 146.71428 M 155.4654 171.16667 L 159.7172 171.16667 "/>
<path transform="matrix(1,0,0,-1,.199,184.986)" stroke-width="1" stroke-linecap="butt" stroke-miterlimit="10" stroke-linejoin="miter" fill="none" stroke="#000000" d="M 0 73.35713 L 313.18504 73.35713 "/>
<path transform="matrix(1,0,0,-1,313.38404,111.62886)" d="M 1.99252 0 L -1.19551 1.59401 L 0 0 L -1.19551 -1.59401 "/>
<path transform="matrix(1,0,0,-1,.199,184.986)" stroke-width="1" stroke-linecap="butt" stroke-miterlimit="10" stroke-linejoin="miter" fill="none" stroke="#000000" d="M 157.59131 0 L 157.59131 169.17415 "/>
<path transform="matrix(0,-1,-1,-0,157.79032,15.811844)" d="M 1.99252 0 L -1.19551 1.59401 L 0 0 L -1.19551 -1.59401 "/>
<symbol id="font_0_1">
<path d="M .57600006 0 C .59300008 0 .611 0 .611 .019999996 C .611 .040000008 .59300008 .040000008 .57600006 .040000008 L .035000005 .040000008 C .018 .040000008 0 .040000008 0 .019999996 C 0 0 .018 0 .035000005 0 L .57600006 0 Z "/>
</symbol>
<use xlink:href="#font_0_1" transform="matrix(9.9626,0,0,-9.9626,26.178896,121.478588)"/>
<symbol id="font_1_4">
<path d="M .266 .165 L .266 .078 C .266 .042000005 .26400004 .031000002 .19000001 .031000002 L .16900002 .031000002 L .16900002 0 C .21000001 .003 .26200003 .003 .30400003 .003 C .34600003 .003 .39900003 .003 .44000004 0 L .44000004 .031000002 L .41900004 .031000002 C .34500004 .031000002 .34300003 .042000005 .34300003 .078 L .34300003 .165 L .44300003 .165 L .44300003 .19600001 L .34300003 .19600001 L .34300003 .651 C .34300003 .671 .34300003 .67700007 .32700003 .67700007 C .31800003 .67700007 .31500004 .67700007 .307 .665 L 0 .19600001 L 0 .165 L .266 .165 M .272 .19600001 L .028 .19600001 L .272 .569 L .272 .19600001 Z "/>
</symbol>
<use xlink:href="#font_1_4" transform="matrix(9.9626,0,0,-9.9626,33.37995,123.76998)"/>
<use xlink:href="#font_0_1" transform="matrix(9.9626,0,0,-9.9626,57.6969,121.478588)"/>
<symbol id="font_1_3">
<path d="M .24800003 .37400005 C .33 .40100003 .388 .47100006 .388 .55 C .388 .632 .3 .688 .204 .688 C .10300001 .688 .027000003 .628 .027000003 .55200007 C .027000003 .519 .049000004 .5 .078 .5 C .109000008 .5 .12900001 .522 .12900001 .55100008 C .12900001 .6010001 .082 .6010001 .067 .6010001 C .098 .65000006 .164 .66300007 .20000002 .66300007 C .24100003 .66300007 .29600004 .64100006 .29600004 .55100008 C .29600004 .53900006 .29400004 .48100005 .268 .43700005 C .238 .38900004 .204 .38600005 .17900002 .38500003 C .171 .38400004 .14700002 .38200004 .14000002 .38200004 C .132 .38100005 .125 .38000003 .125 .37000004 C .125 .35900004 .132 .35900004 .14900002 .35900004 L .19300002 .35900004 C .275 .35900004 .312 .29100005 .312 .193 C .312 .057000005 .24300003 .028 .199 .028 C .15600002 .028 .081 .045 .046000005 .104 C .081 .09900001 .11200001 .12100001 .11200001 .15900001 C .11200001 .19500001 .085 .215 .056 .215 C .031999999 .215 0 .201 0 .157 C 0 .06600001 .093 0 .20200002 0 C .32400004 0 .41500003 .091000009 .41500003 .193 C .41500003 .27500005 .35200004 .35300005 .24800003 .37400005 Z "/>
</symbol>
<use xlink:href="#font_1_3" transform="matrix(9.9626,0,0,-9.9626,65.03743,123.98916)"/>
<use xlink:href="#font_0_1" transform="matrix(9.9626,0,0,-9.9626,89.2149,121.478588)"/>
<symbol id="font_1_2">
<path d="M .07700001 .07700001 L .18300002 .18 C .33900003 .31800003 .39900003 .372 .39900003 .47200004 C .39900003 .586 .30900003 .666 .18700002 .666 C .074 .666 0 .574 0 .485 C 0 .42900003 .05 .42900003 .053000008 .42900003 C .07000001 .42900003 .105000007 .441 .105000007 .48200003 C .105000007 .508 .08700001 .53400006 .052000006 .53400006 C .044000005 .53400006 .042000008 .53400006 .039 .53300008 C .062000004 .59800007 .11600001 .63500007 .17400001 .63500007 C .26500003 .63500007 .308 .554 .308 .47200004 C .308 .39200003 .25800003 .31300003 .20300003 .25100003 L .011000004 .037 C 0 .026 0 .024 0 0 L .37100003 0 L .39900003 .17400001 L .374 .17400001 C .36900003 .14400001 .36200003 .1 .352 .085 C .345 .07700001 .279 .07700001 .257 .07700001 L .07700001 .07700001 Z "/>
</symbol>
<use xlink:href="#font_1_2" transform="matrix(9.9626,0,0,-9.9626,96.63513,123.76998)"/>
<use xlink:href="#font_0_1" transform="matrix(9.9626,0,0,-9.9626,120.732898,121.478588)"/>
<symbol id="font_1_1">
<path d="M .205 .64000007 C .205 .66400006 .205 .666 .18200003 .666 C .120000008 .60200008 .032000007 .60200008 0 .60200008 L 0 .57100006 C .020000004 .57100006 .07900001 .57100006 .13100001 .597 L .13100001 .079 C .13100001 .043 .128 .031000002 .038000004 .031000002 L .0060000049 .031000002 L .0060000049 0 C .04100001 .003 .128 .003 .168 .003 C .20800002 .003 .29500003 .003 .33000005 0 L .33000005 .031000002 L .29800005 .031000002 C .20800002 .031000002 .205 .042000005 .205 .079 L .205 .64000007 Z "/>
</symbol>
<use xlink:href="#font_1_1" transform="matrix(9.9626,0,0,-9.9626,128.54067,123.76998)"/>
<use xlink:href="#font_1_1" transform="matrix(9.9626,0,0,-9.9626,187.70269,123.76998)"/>
<use xlink:href="#font_1_2" transform="matrix(9.9626,0,0,-9.9626,218.83213,123.76998)"/>
<use xlink:href="#font_1_3" transform="matrix(9.9626,0,0,-9.9626,250.26943,123.98916)"/>
<use xlink:href="#font_1_4" transform="matrix(9.9626,0,0,-9.9626,281.64799,123.76998)"/>
<use xlink:href="#font_0_1" transform="matrix(9.9626,0,0,-9.9626,140.1659,185.4906)"/>
<use xlink:href="#font_1_3" transform="matrix(9.9626,0,0,-9.9626,147.50643,188.00118)"/>
<use xlink:href="#font_0_1" transform="matrix(9.9626,0,0,-9.9626,140.1659,161.0376)"/>
<use xlink:href="#font_1_2" transform="matrix(9.9626,0,0,-9.9626,147.58612,163.329)"/>
<use xlink:href="#font_0_1" transform="matrix(9.9626,0,0,-9.9626,140.1659,136.58559)"/>
<use xlink:href="#font_1_1" transform="matrix(9.9626,0,0,-9.9626,147.97467,138.87699)"/>
<use xlink:href="#font_1_1" transform="matrix(9.9626,0,0,-9.9626,147.97469,90.387989)"/>
<use xlink:href="#font_1_2" transform="matrix(9.9626,0,0,-9.9626,147.58614,65.93598)"/>
<use xlink:href="#font_1_3" transform="matrix(9.9626,0,0,-9.9626,147.50644,41.70317)"/>
<use xlink:href="#font_1_4" transform="matrix(9.9626,0,0,-9.9626,147.36696,17.031998)"/>
<path transform="matrix(1,0,0,-1,.199,184.986)" stroke-width="1" stroke-linecap="butt" stroke-miterlimit="10" stroke-linejoin="miter" fill="none" stroke="#000000" d="M 0 73.35713 L 13.13239 73.35713 L 26.26479 73.35713 L 39.39719 73.35713 L 52.52957 73.35713 L 65.66197 73.35713 L 78.79439 73.35713 L 91.92679 73.35713 L 105.05917 73.35713 L 118.19157 73.35713 L 131.32398 73.35713 L 144.45638 73.35713 L 157.58878 73.35713 L 170.72118 73.35713 L 183.85358 73.35713 L 196.98596 73.35713 L 210.11837 73.35713 L 223.25078 73.35713 L 236.38317 73.35713 L 249.51557 73.35713 L 262.64796 73.35713 L 275.78038 73.35713 L 288.91279 73.35713 L 302.04518 73.35713 L 315.17759 73.35713 "/>
<path transform="matrix(1,0,0,-1,.199,184.986)" stroke-width="1" stroke-linecap="butt" stroke-miterlimit="10" stroke-linejoin="miter" fill="none" stroke="#000000" d="M 157.59131 0 L 157.59131 146.71428 "/>
<path transform="matrix(1,0,0,-1,.199,184.986)" stroke-width="1.19553" stroke-linecap="butt" stroke-miterlimit="10" stroke-linejoin="miter" fill="none" stroke="#000080" d="M 97.08078 99.76923 L 98.49455 100.86606 L 102.43434 103.92262 L 106.37411 106.97916 L 110.3139 110.0357 L 114.25368 113.09225 L 118.19348 116.1488 L 122.13326 119.20535 L 126.07304 122.2619 L 130.01282 125.31845 L 133.9526 128.375 L 137.89238 131.43154 L 141.83217 134.4881 L 145.77194 137.54463 L 149.71173 140.6012 L 153.6515 143.65773 L 157.59131 146.71428 L 161.53108 149.77083 L 165.47087 152.82738 L 169.41065 155.88393 L 173.35044 158.94048 L 177.2902 161.99703 L 181.23 165.05358 L 185.16977 168.1101 L 189.10956 171.16667 "/>
<path transform="matrix(-.79233,.6147,.6147,.79233,97.27978,85.21675)" d="M 3.18808 0 L -1.91284 2.55046 L 0 0 L -1.91284 -2.55046 " fill="#000080"/>
<path transform="matrix(1,0,0,-1,.199,184.986)" stroke-width="1.19553" stroke-linecap="butt" stroke-miterlimit="10" stroke-linejoin="miter" fill="none" stroke="#000080" d="M 189.10956 48.90475 L 192.39269 37.11588 L 195.67581 26.57777 L 198.95894 18.40945 L 202.24208 13.47655 L 205.5252 12.30614 L 208.80834 15.0196 L 212.09146 21.32907 L 215.3746 30.56548 L 218.65773 41.74876 L 221.94086 53.69057 L 225.22399 65.12512 L 228.50711 74.83943 L 231.79024 81.79883 L 235.07337 85.26717 L 238.3565 84.87689 L 241.63964 80.6695 L 244.92276 73.08876 L 248.20589 62.94127 L 251.48903 51.30463 L 254.77216 39.4138 L 258.05528 28.5298 L 261.3384 19.80873 L 264.62156 14.17455 L 265.1589 13.85582 "/>
<path transform="matrix(.86127,.51094,.51094,-.86127,265.35789,171.13016)" d="M 3.18808 0 L -1.91284 2.55046 L 0 0 L -1.91284 -2.55046 " fill="#000080"/>
<path transform="matrix(1,0,0,-1,.199,184.986)" d="M 191.10211 122.2619 C 191.10211 123.36238 190.21004 124.25446 189.10956 124.25446 C 188.0091 124.25446 187.117 123.36238 187.117 122.2619 C 187.117 121.16144 188.0091 120.26935 189.10956 120.26935 C 190.21004 120.26935 191.10211 121.16144 191.10211 122.2619 Z M 189.10956 122.2619 " fill="#000080"/>
<path transform="matrix(1,0,0,-1,.199,184.986)" stroke-width="1" stroke-linecap="butt" stroke-miterlimit="10" stroke-linejoin="miter" fill="none" stroke="#000080" d="M 191.10211 122.2619 C 191.10211 123.36238 190.21004 124.25446 189.10956 124.25446 C 188.0091 124.25446 187.117 123.36238 187.117 122.2619 C 187.117 121.16144 188.0091 120.26935 189.10956 120.26935 C 190.21004 120.26935 191.10211 121.16144 191.10211 122.2619 Z M 189.10956 122.2619 "/>
<path transform="matrix(1,0,0,-1,.199,184.986)" d="M 191.10211 171.16667 C 191.10211 172.26714 190.21004 173.15923 189.10956 173.15923 C 188.0091 173.15923 187.117 172.26714 187.117 171.16667 C 187.117 170.0662 188.0091 169.17412 189.10956 169.17412 C 190.21004 169.17412 191.10211 170.0662 191.10211 171.16667 Z M 189.10956 171.16667 " fill="#ffffff"/>
<path transform="matrix(1,0,0,-1,.199,184.986)" stroke-width="1" stroke-linecap="butt" stroke-miterlimit="10" stroke-linejoin="miter" fill="none" stroke="#000080" d="M 191.10211 171.16667 C 191.10211 172.26714 190.21004 173.15923 189.10956 173.15923 C 188.0091 173.15923 187.117 172.26714 187.117 171.16667 C 187.117 170.0662 188.0091 169.17412 189.10956 169.17412 C 190.21004 169.17412 191.10211 170.0662 191.10211 171.16667 Z M 189.10956 171.16667 "/>
<path transform="matrix(1,0,0,-1,.199,184.986)" d="M 191.10211 48.90475 C 191.10211 50.00523 190.21004 50.89731 189.10956 50.89731 C 188.0091 50.89731 187.117 50.00523 187.117 48.90475 C 187.117 47.80429 188.0091 46.9122 189.10956 46.9122 C 190.21004 46.9122 191.10211 47.80429 191.10211 48.90475 Z M 189.10956 48.90475 " fill="#ffffff"/>
<path transform="matrix(1,0,0,-1,.199,184.986)" stroke-width="1" stroke-linecap="butt" stroke-miterlimit="10" stroke-linejoin="miter" fill="none" stroke="#000080" d="M 191.10211 48.90475 C 191.10211 50.00523 190.21004 50.89731 189.10956 50.89731 C 188.0091 50.89731 187.117 50.00523 187.117 48.90475 C 187.117 47.80429 188.0091 46.9122 189.10956 46.9122 C 190.21004 46.9122 191.10211 47.80429 191.10211 48.90475 Z M 189.10956 48.90475 "/>
<symbol id="font_2_2">
<path d="M .45700003 .586 C .461 .6 .461 .602 .461 .609 C .461 .62700006 .447 .63600006 .432 .63600006 C .42200003 .63600006 .40600003 .63 .397 .615 C .395 .61 .387 .579 .38300003 .561 C .37600003 .535 .36900003 .508 .363 .48100005 L .318 .301 C .314 .286 .271 .21600002 .20500002 .21600002 C .15400002 .21600002 .143 .26000003 .143 .29700003 C .143 .34300003 .16000001 .40500004 .194 .49300004 C .21000001 .53400006 .21400002 .545 .21400002 .56500008 C .21400002 .61 .18200001 .6470001 .13200002 .6470001 C .037 .6470001 0 .50200006 0 .49300004 C 0 .48300005 .01 .48300005 .012 .48300005 C .022000002 .48300005 .023 .485 .028000003 .50100007 C .055000009 .595 .095000009 .625 .12900001 .625 C .13700001 .625 .15400002 .625 .15400002 .59300008 C .15400002 .568 .14400001 .54200008 .13700001 .523 C .097 .41700004 .079 .36 .079 .31300003 C .079 .224 .142 .194 .201 .194 C .24000003 .194 .274 .21100001 .30200003 .23900002 C .289 .187 .277 .13800001 .237 .08500001 C .21100001 .051 .17300001 .022 .127 .022 C .113000009 .022 .068 .025000006 .051000008 .06400001 C .067 .06400001 .080000009 .06400001 .094000007 .076000008 C .104 .08500001 .11400001 .098000008 .11400001 .117000009 C .11400001 .148 .087000008 .15200001 .07700001 .15200001 C .054000006 .15200001 .021 .136 .021 .087000008 C .021 .037 .065000008 0 .127 0 C .23 0 .333 .091000009 .361 .20400001 L .45700003 .586 Z "/>
</symbol>
<use xlink:href="#font_2_2" transform="matrix(9.9626,0,0,-9.9626,319.32594,114.83233)"/>
<symbol id="font_2_1">
<path d="M .335 .605 C .344 .64100006 .347 .652 .441 .652 C .47100006 .652 .479 .652 .479 .671 C .479 .683 .46800003 .683 .46300004 .683 C .43 .683 .34800003 .68 .315 .68 C .285 .68 .21200001 .683 .18200001 .683 C .17500001 .683 .163 .683 .163 .66300007 C .163 .652 .172 .652 .191 .652 C .193 .652 .21200001 .652 .229 .65000006 C .24700001 .648 .256 .647 .256 .634 C .256 .63000008 .255 .62700006 .252 .615 L .118 .078 C .107999999 .039 .106000009 .031000002 .026999999 .031000002 C .010000002 .031000002 0 .031000002 0 .011000001 C 0 0 .009 0 .026999999 0 L .49000005 0 C .51400008 0 .51500007 0 .521 .017 L .6000001 .23300001 C .60400006 .24400002 .60400006 .246 .60400006 .24700001 C .60400006 .25100003 .6010001 .25800003 .59200009 .25800003 C .58300009 .25800003 .5820001 .25300003 .57500007 .23700002 C .54100009 .14500001 .497 .031000002 .324 .031000002 L .23000002 .031000002 C .21600002 .031000002 .21400002 .031000002 .208 .032 C .19800002 .033 .19500001 .034 .19500001 .042000005 C .19500001 .045 .19500001 .047000003 .2 .065000008 L .335 .605 Z "/>
</symbol>
<use xlink:href="#font_2_1" transform="matrix(9.9626,0,0,-9.9626,154.82254,10.201996)"/>
</svg>
