<?xml version="1.0" encoding="UTF-8" standalone="no"?>
<!DOCTYPE svg PUBLIC "-//W3C//DTD SVG 1.1//EN" "http://www.w3.org/Graphics/SVG/1.1/DTD/svg11.dtd">
<svg xmlns="http://www.w3.org/2000/svg" xmlns:xlink="http://www.w3.org/1999/xlink" version="1.1" width="328.125pt" height="194.055pt" viewBox="0 0 328.125 194.055">
<path transform="matrix(1,0,0,-1,.199,187.03499)" stroke-width="1" stroke-linecap="butt" stroke-miterlimit="10" stroke-linejoin="miter" fill="none" stroke="#cbcbcb" d="M 31.51825 0 L 31.51825 171.16819 M 63.03651 0 L 63.03651 171.16819 M 94.55478 0 L 94.55478 171.16819 M 126.07304 0 L 126.07304 171.16819 M 189.10956 0 L 189.10956 171.16819 M 220.62783 0 L 220.62783 171.16819 M 252.14609 0 L 252.14609 171.16819 M 283.66435 0 L 283.66435 171.16819 "/>
<path transform="matrix(1,0,0,-1,.199,187.03499)" stroke-width="1" stroke-linecap="butt" stroke-miterlimit="10" stroke-linejoin="miter" fill="none" stroke="#cbcbcb" d="M 0 0 L 315.17759 0 M 0 28.52803 L 315.17759 28.52803 M 0 57.05606 L 315.17759 57.05606 M 0 114.11212 L 315.17759 114.11212 M 0 142.64015 L 315.17759 142.64015 M 0 171.16819 L 315.17759 171.16819 "/>
<path transform="matrix(1,0,0,-1,.199,187.03499)" stroke-width="1" stroke-linecap="butt" stroke-miterlimit="10" stroke-linejoin="miter" fill="none" stroke="#929292" d="M 31.51825 83.45815 L 31.51825 87.71002 M 63.03651 83.45815 L 63.03651 87.71002 M 94.55478 83.45815 L 94.55478 87.71002 M 126.07304 83.45815 L 126.07304 87.71002 M 189.10956 83.45815 L 189.10956 87.71002 M 220.62783 83.45815 L 220.62783 87.71002 M 252.14609 83.45815 L 252.14609 87.71002 M 283.66435 83.45815 L 283.66435 87.71002 "/>
<path transform="matrix(1,0,0,-1,.199,187.03499)" stroke-width="1" stroke-linecap="butt" stroke-miterlimit="10" stroke-linejoin="miter" fill="none" stroke="#929292" d="M 155.4654 0 L 159.7172 0 M 155.4654 28.52803 L 159.7172 28.52803 M 155.4654 57.05606 L 159.7172 57.05606 M 155.4654 114.11212 L 159.7172 114.11212 M 155.4654 142.64015 L 159.7172 142.64015 M 155.4654 171.16819 L 159.7172 171.16819 "/>
<path transform="matrix(1,0,0,-1,.199,187.03499)" stroke-width="1" stroke-linecap="butt" stroke-miterlimit="10" stroke-linejoin="miter" fill="none" stroke="#000000" d="M 0 85.58409 L 313.18504 85.58409 "/>
<path transform="matrix(1,0,0,-1,313.38404,101.4509)" d="M 1.99252 0 L -1.19551 1.59401 L 0 0 L -1.19551 -1.59401 "/>
<path transform="matrix(1,0,0,-1,.199,187.03499)" stroke-width="1" stroke-linecap="butt" stroke-miterlimit="10" stroke-linejoin="miter" fill="none" stroke="#000000" d="M 157.59131 0 L 157.59131 169.17566 "/>
<path transform="matrix(0,-1,-1,-0,157.79032,17.85933)" d="M 1.99252 0 L -1.19551 1.59401 L 0 0 L -1.19551 -1.59401 "/>
<symbol id="font_0_1">
<path d="M .57600006 0 C .59300008 0 .611 0 .611 .019999996 C .611 .040000008 .59300008 .040000008 .57600006 .040000008 L .035000005 .040000008 C .018 .040000008 0 .040000008 0 .019999996 C 0 0 .018 0 .035000005 0 L .57600006 0 Z "/>
</symbol>
<use xlink:href="#font_0_1" transform="matrix(9.9626,0,0,-9.9626,26.178896,111.3006)"/>
<symbol id="font_1_4">
<path d="M .266 .165 L .266 .078 C .266 .042000005 .26400004 .031000002 .19000001 .031000002 L .16900002 .031000002 L .16900002 0 C .21000001 .003 .26200003 .003 .30400003 .003 C .34600003 .003 .39900003 .003 .44000004 0 L .44000004 .031000002 L .41900004 .031000002 C .34500004 .031000002 .34300003 .042000005 .34300003 .078 L .34300003 .165 L .44300003 .165 L .44300003 .19600001 L .34300003 .19600001 L .34300003 .651 C .34300003 .671 .34300003 .67700007 .32700003 .67700007 C .31800003 .67700007 .31500004 .67700007 .307 .665 L 0 .19600001 L 0 .165 L .266 .165 M .272 .19600001 L .028 .19600001 L .272 .569 L .272 .19600001 Z "/>
</symbol>
<use xlink:href="#font_1_4" transform="matrix(9.9626,0,0,-9.9626,33.37995,113.591999)"/>
<use xlink:href="#font_0_1" transform="matrix(9.9626,0,0,-9.9626,57.6969,111.3006)"/>
<symbol id="font_1_3">
<path d="M .24800003 .37400005 C .33 .40100003 .388 .47100006 .388 .55 C .388 .632 .3 .688 .204 .688 C .10300001 .688 .027000003 .628 .027000003 .55200007 C .027000003 .519 .049000004 .5 .078 .5 C .109000008 .5 .12900001 .522 .12900001 .55100008 C .12900001 .6010001 .082 .6010001 .067 .6010001 C .098 .65000006 .164 .66300007 .20000002 .66300007 C .24100003 .66300007 .29600004 .64100006 .29600004 .55100008 C .29600004 .53900006 .29400004 .48100005 .268 .43700005 C .238 .38900004 .204 .38600005 .17900002 .38500003 C .171 .38400004 .14700002 .38200004 .14000002 .38200004 C .132 .38100005 .125 .38000003 .125 .37000004 C .125 .35900004 .132 .35900004 .14900002 .35900004 L .19300002 .35900004 C .275 .35900004 .312 .29100005 .312 .193 C .312 .057000005 .24300003 .028 .199 .028 C .15600002 .028 .081 .045 .046000005 .104 C .081 .09900001 .11200001 .12100001 .11200001 .15900001 C .11200001 .19500001 .085 .215 .056 .215 C .031999999 .215 0 .201 0 .157 C 0 .06600001 .093 0 .20200002 0 C .32400004 0 .41500003 .091000009 .41500003 .193 C .41500003 .27500005 .35200004 .35300005 .24800003 .37400005 Z "/>
</symbol>
<use xlink:href="#font_1_3" transform="matrix(9.9626,0,0,-9.9626,65.03743,113.81117)"/>
<use xlink:href="#font_0_1" transform="matrix(9.9626,0,0,-9.9626,89.2149,111.3006)"/>
<symbol id="font_1_2">
<path d="M .07700001 .07700001 L .18300002 .18 C .33900003 .31800003 .39900003 .372 .39900003 .47200004 C .39900003 .586 .30900003 .666 .18700002 .666 C .074 .666 0 .574 0 .485 C 0 .42900003 .05 .42900003 .053000008 .42900003 C .07000001 .42900003 .105000007 .441 .105000007 .48200003 C .105000007 .508 .08700001 .53400006 .052000006 .53400006 C .044000005 .53400006 .042000008 .53400006 .039 .53300008 C .062000004 .59800007 .11600001 .63500007 .17400001 .63500007 C .26500003 .63500007 .308 .554 .308 .47200004 C .308 .39200003 .25800003 .31300003 .20300003 .25100003 L .011000004 .037 C 0 .026 0 .024 0 0 L .37100003 0 L .39900003 .17400001 L .374 .17400001 C .36900003 .14400001 .36200003 .1 .352 .085 C .345 .07700001 .279 .07700001 .257 .07700001 L .07700001 .07700001 Z "/>
</symbol>
<use xlink:href="#font_1_2" transform="matrix(9.9626,0,0,-9.9626,96.63513,113.591999)"/>
<use xlink:href="#font_0_1" transform="matrix(9.9626,0,0,-9.9626,120.732898,111.3006)"/>
<symbol id="font_1_1">
<path d="M .205 .64000007 C .205 .66400006 .205 .666 .18200003 .666 C .120000008 .60200008 .032000007 .60200008 0 .60200008 L 0 .57100006 C .020000004 .57100006 .07900001 .57100006 .13100001 .597 L .13100001 .079 C .13100001 .043 .128 .031000002 .038000004 .031000002 L .0060000049 .031000002 L .0060000049 0 C .04100001 .003 .128 .003 .168 .003 C .20800002 .003 .29500003 .003 .33000005 0 L .33000005 .031000002 L .29800005 .031000002 C .20800002 .031000002 .205 .042000005 .205 .079 L .205 .64000007 Z "/>
</symbol>
<use xlink:href="#font_1_1" transform="matrix(9.9626,0,0,-9.9626,128.54067,113.591999)"/>
<use xlink:href="#font_1_1" transform="matrix(9.9626,0,0,-9.9626,187.70269,113.591999)"/>
<use xlink:href="#font_1_2" transform="matrix(9.9626,0,0,-9.9626,218.83213,113.591999)"/>
<use xlink:href="#font_1_3" transform="matrix(9.9626,0,0,-9.9626,250.26943,113.81117)"/>
<use xlink:href="#font_1_4" transform="matrix(9.9626,0,0,-9.9626,281.64799,113.591999)"/>
<use xlink:href="#font_0_1" transform="matrix(9.9626,0,0,-9.9626,140.1659,187.53859)"/>
<use xlink:href="#font_1_3" transform="matrix(9.9626,0,0,-9.9626,147.50643,190.04917)"/>
<use xlink:href="#font_0_1" transform="matrix(9.9626,0,0,-9.9626,140.1659,159.0116)"/>
<use xlink:href="#font_1_2" transform="matrix(9.9626,0,0,-9.9626,147.58612,161.303)"/>
<use xlink:href="#font_0_1" transform="matrix(9.9626,0,0,-9.9626,140.1659,130.4836)"/>
<use xlink:href="#font_1_1" transform="matrix(9.9626,0,0,-9.9626,147.97467,132.775)"/>
<use xlink:href="#font_1_1" transform="matrix(9.9626,0,0,-9.9626,147.97469,76.134998)"/>
<use xlink:href="#font_1_2" transform="matrix(9.9626,0,0,-9.9626,147.58614,47.606996)"/>
<use xlink:href="#font_1_3" transform="matrix(9.9626,0,0,-9.9626,147.50644,19.298172)"/>
<path transform="matrix(1,0,0,-1,.199,187.03499)" stroke-width="1" stroke-linecap="butt" stroke-miterlimit="10" stroke-linejoin="miter" fill="none" stroke="#000000" d="M 0 85.58409 L 13.13239 85.58409 L 26.26479 85.58409 L 39.39719 85.58409 L 52.52957 85.58409 L 65.66197 85.58409 L 78.79439 85.58409 L 91.92679 85.58409 L 105.05917 85.58409 L 118.19157 85.58409 L 131.32398 85.58409 L 144.45638 85.58409 L 157.58878 85.58409 L 170.72118 85.58409 L 183.85358 85.58409 L 196.98596 85.58409 L 210.11837 85.58409 L 223.25078 85.58409 L 236.38317 85.58409 L 249.51557 85.58409 L 262.64796 85.58409 L 275.78038 85.58409 L 288.91279 85.58409 L 302.04518 85.58409 L 315.17759 85.58409 "/>
<path transform="matrix(1,0,0,-1,.199,187.03499)" stroke-width="1" stroke-linecap="butt" stroke-miterlimit="10" stroke-linejoin="miter" fill="none" stroke="#000000" d="M 157.59131 0 L 157.59131 171.16819 "/>
<path transform="matrix(1,0,0,-1,.199,187.03499)" stroke-width="1.19553" stroke-linecap="butt" stroke-miterlimit="10" stroke-linejoin="miter" fill="none" stroke="#000080" d="M 49.64708 73.46503 L 50.56052 74.29172 L 53.84364 77.26337 L 57.12675 80.23502 L 60.4099 83.20667 L 63.69302 86.17831 L 66.97615 89.14996 L 70.25928 92.12161 L 73.54242 95.09326 L 76.82555 98.06491 L 80.10867 101.03656 L 83.39182 104.00822 L 86.67494 106.97986 L 89.95807 109.9515 L 93.2412 112.92316 L 96.52434 115.8948 L 99.80745 118.86647 L 103.09058 121.83812 L 106.3737 124.80975 L 109.65685 127.7814 L 112.93997 130.75307 L 116.2231 133.72472 L 119.50624 136.69637 L 122.78937 139.66802 L 126.0725 142.63965 "/>
<path transform="matrix(-.7433,.6728,.6728,.7433,49.8461,113.56996)" d="M 3.18808 0 L -1.91284 2.55046 L 0 0 L -1.91284 -2.55046 " fill="#000080"/>
<path transform="matrix(1,0,0,-1,.199,187.03499)" stroke-width="1.19553" stroke-linecap="butt" stroke-miterlimit="10" stroke-linejoin="miter" fill="none" stroke="#000080" d="M 189.10956 156.90418 L 192.39269 156.33032 L 195.67581 154.6319 L 198.95894 151.85044 L 202.24208 148.05905 L 205.5252 143.3639 L 208.80834 137.88481 L 212.09146 131.77196 L 215.3746 125.18756 L 218.65773 118.30574 L 221.94086 111.31436 L 225.22399 104.3962 L 228.50711 97.73816 L 231.79024 91.51663 L 235.07337 85.89932 L 238.3565 81.03601 L 241.63964 77.05377 L 244.92276 74.06517 L 248.20589 72.14424 L 251.48903 71.34488 L 254.77216 71.68808 L 258.05528 73.16399 L 261.3384 75.73448 L 264.62156 79.32988 L 266.027 81.26666 "/>
<path transform="matrix(.58896,-.81152,-.81152,-.58896,266.226,105.768329)" d="M 3.18808 0 L -1.91284 2.55046 L 0 0 L -1.91284 -2.55046 " fill="#000080"/>
<symbol id="font_2_1">
<path d="M .133 .113000009 C .09 .037 .047000003 .033 .011999998 .031000002 C .0009999983 .030000002 0 .013 0 .012 C 0 .009000001 .0009999983 0 .011999998 0 C .036999998 0 .066 .003 .09200001 .003 C .12300001 .003 .15500002 0 .18500002 0 C .19000001 0 .20300003 0 .20300003 .019000002 C .20300003 .030000002 .19500001 .030000002 .187 .031000002 C .18100001 .032 .14500001 .034 .14500001 .065000008 C .14500001 .074 .15 .086 .15900001 .10300001 L .23100002 .22900002 L .459 .22900002 L .47000004 .063 C .47000004 .043 .44599999 .031000002 .403 .031000002 C .39200003 .031000002 .38 .031000002 .38 .012 C .38 0 .39200003 0 .395 0 C .432 0 .472 .003 .51 .003 C .545 .003 .58100005 0 .615 0 C .621 0 .633 0 .633 .018000002 C .633 .031000002 .625 .031000002 .609 .031000002 C .55700007 .031000002 .554 .039 .552 .065000008 L .509 .69100007 C .508 .71300008 .507 .716 .491 .716 C .47500003 .716 .47100003 .70900008 .46500004 .698 L .133 .113000009 M .43400003 .587 L .45700003 .26000003 L .24800001 .26000003 L .43400003 .587 Z "/>
</symbol>
<use xlink:href="#font_2_1" transform="matrix(9.9626,0,0,-9.9626,97.94179,62.064989)"/>
<symbol id="font_2_2">
<path d="M .32000003 .61600008 C .32900004 .652 .33600004 .652 .36900003 .652 L .48700006 .652 C .57100006 .652 .58100005 .58400008 .58100005 .55300006 C .58100005 .46800003 .504 .36600004 .39000003 .36600004 L .25800003 .36600004 L .32000003 .61600008 M .47300006 .35700003 C .595 .384 .669 .47000004 .669 .54700008 C .669 .619 .61 .683 .50100007 .683 L .19000003 .683 C .174 .683 .16300002 .683 .16300002 .66400006 C .16300002 .652 .171 .652 .19000003 .652 C .22100002 .652 .24800003 .652 .24800003 .63500007 C .24800003 .632 .24800003 .63000008 .24400002 .61600008 L .109000008 .07300001 C .101 .039 .095000009 .031000002 .027000003 .031000002 C .011 .031000002 0 .031000002 0 .012 C 0 0 .008999996 0 .024999999 0 L .35500003 0 C .49700005 0 .61200007 .115 .61200007 .21900001 C .61200007 .30200003 .545 .34800003 .47300006 .35700003 M .33300004 .031000002 L .20900002 .031000002 C .178 .031000002 .178 .034 .178 .041 C .178 .047000003 .181 .057000005 .18200001 .063 L .252 .344 L .42400003 .344 C .517 .344 .523 .25800003 .523 .23200001 C .523 .135 .44300003 .031000002 .33300004 .031000002 Z "/>
</symbol>
<use xlink:href="#font_2_2" transform="matrix(9.9626,0,0,-9.9626,202.20658,62.064989)"/>
<symbol id="font_2_3">
<path d="M .6600001 .70300009 C .661 .7070001 .66200008 .71300008 .66200008 .71700009 C .66200008 .71900007 .661 .72700008 .651 .72700008 C .64900007 .72700008 .64400008 .72700008 .635 .716 L .572 .642 C .52900007 .711 .47100006 .72700008 .42100004 .72700008 C .215 .72700008 0 .50200006 0 .26700003 C 0 .103 .10699999 0 .245 0 C .44000004 0 .549 .214 .549 .26200003 C .549 .272 .53900006 .272 .53400006 .272 C .528 .272 .521 .272 .518 .26400004 C .46700005 .095000009 .342 .031000004 .259 .031000004 C .17500001 .031000004 .08700001 .087000008 .08700001 .22900002 C .08700001 .29100005 .11200002 .44800005 .192 .558 C .26000003 .65000006 .35200004 .69600006 .42900006 .69600006 C .5350001 .69600006 .571 .6 .571 .513 C .571 .48700006 .566 .45500005 .566 .45200003 C .566 .44200004 .576 .44200004 .581 .44200004 C .592 .44200004 .595 .44300006 .599 .46000005 L .6600001 .70300009 Z "/>
</symbol>
<use xlink:href="#font_2_3" transform="matrix(9.9626,0,0,-9.9626,54.86139,96.517169)"/>
<symbol id="font_2_4">
<path d="M .109000008 .07300001 C .101 .039 .095000009 .031000002 .027000003 .031000002 C .011 .031000002 0 .031000002 0 .012 C 0 0 .009000003 0 .025000006 0 L .33200003 0 C .521 0 .712 .21300002 .712 .43800003 C .712 .58100005 .631 .683 .502 .683 L .19000003 .683 C .17400003 .683 .16300002 .683 .16300002 .66400006 C .16300002 .652 .171 .652 .19000003 .652 C .22100002 .652 .24800003 .652 .24800003 .63500007 C .24800003 .632 .24800003 .63000008 .24400002 .61600008 L .109000008 .07300001 M .323 .61600008 C .33200003 .651 .33900003 .652 .37200005 .652 L .469 .652 C .55 .652 .629 .60700008 .629 .476 C .629 .41700004 .6 .23 .515 .13000001 C .46600006 .07300001 .39500005 .031000002 .31500004 .031000002 L .21200001 .031000002 C .18100003 .031000002 .18100003 .034 .18100003 .041 C .18100003 .047000003 .18400002 .057000005 .185 .063 L .323 .61600008 Z "/>
</symbol>
<use xlink:href="#font_2_4" transform="matrix(9.9626,0,0,-9.9626,236.60164,96.29799)"/>
<path transform="matrix(1,0,0,-1,.199,187.03499)" d="M 128.0656 28.52803 C 128.0656 29.6285 127.17351 30.52058 126.07304 30.52058 C 124.97256 30.52058 124.08049 29.6285 124.08049 28.52803 C 124.08049 27.42755 124.97256 26.53548 126.07304 26.53548 C 127.17351 26.53548 128.0656 27.42755 128.0656 28.52803 Z M 126.07304 28.52803 " fill="#000080"/>
<path transform="matrix(1,0,0,-1,.199,187.03499)" stroke-width="1" stroke-linecap="butt" stroke-miterlimit="10" stroke-linejoin="miter" fill="none" stroke="#000080" d="M 128.0656 28.52803 C 128.0656 29.6285 127.17351 30.52058 126.07304 30.52058 C 124.97256 30.52058 124.08049 29.6285 124.08049 28.52803 C 124.08049 27.42755 124.97256 26.53548 126.07304 26.53548 C 127.17351 26.53548 128.0656 27.42755 128.0656 28.52803 Z M 126.07304 28.52803 "/>
<path transform="matrix(1,0,0,-1,.199,187.03499)" d="M 191.10211 156.90418 C 191.10211 158.00464 190.21004 158.89673 189.10956 158.89673 C 188.0091 158.89673 187.117 158.00464 187.117 156.90418 C 187.117 155.8037 188.0091 154.91162 189.10956 154.91162 C 190.21004 154.91162 191.10211 155.8037 191.10211 156.90418 Z M 189.10956 156.90418 " fill="#ffffff"/>
<path transform="matrix(1,0,0,-1,.199,187.03499)" stroke-width="1" stroke-linecap="butt" stroke-miterlimit="10" stroke-linejoin="miter" fill="none" stroke="#000080" d="M 191.10211 156.90418 C 191.10211 158.00464 190.21004 158.89673 189.10956 158.89673 C 188.0091 158.89673 187.117 158.00464 187.117 156.90418 C 187.117 155.8037 188.0091 154.91162 189.10956 154.91162 C 190.21004 154.91162 191.10211 155.8037 191.10211 156.90418 Z M 189.10956 156.90418 "/>
<path transform="matrix(1,0,0,-1,.199,187.03499)" d="M 128.0656 142.64015 C 128.0656 143.74063 127.17351 144.6327 126.07304 144.6327 C 124.97256 144.6327 124.08049 143.74063 124.08049 142.64015 C 124.08049 141.53969 124.97256 140.6476 126.07304 140.6476 C 127.17351 140.6476 128.0656 141.53969 128.0656 142.64015 Z M 126.07304 142.64015 " fill="#ffffff"/>
<path transform="matrix(1,0,0,-1,.199,187.03499)" stroke-width="1" stroke-linecap="butt" stroke-miterlimit="10" stroke-linejoin="miter" fill="none" stroke="#000080" d="M 128.0656 142.64015 C 128.0656 143.74063 127.17351 144.6327 126.07304 144.6327 C 124.97256 144.6327 124.08049 143.74063 124.08049 142.64015 C 124.08049 141.53969 124.97256 140.6476 126.07304 140.6476 C 127.17351 140.6476 128.0656 141.53969 128.0656 142.64015 Z M 126.07304 142.64015 "/>
<symbol id="font_3_2">
<path d="M .305 .31300003 C .311 .33900003 .334 .43100003 .404 .43100003 C .409 .43100003 .433 .43100003 .454 .418 C .426 .41300003 .40600003 .388 .40600003 .36400003 C .40600003 .34800003 .417 .32900004 .444 .32900004 C .46600003 .32900004 .498 .34700004 .498 .38700003 C .498 .43900005 .439 .45300005 .405 .45300005 C .347 .45300005 .312 .40000005 .3 .37700004 C .275 .44300003 .221 .45300005 .19200002 .45300005 C .08800001 .45300005 .031000002 .32400004 .031000002 .29900003 C .031000002 .28900004 .041 .28900004 .043000007 .28900004 C .051000008 .28900004 .054000006 .291 .056 .3 C .09 .40600003 .156 .43100003 .19000001 .43100003 C .209 .43100003 .244 .42200003 .244 .36400003 C .244 .33300004 .22700002 .26600004 .19000001 .126 C .17400001 .064 .13900002 .022000002 .095000009 .022000002 C .08900001 .022000002 .06600001 .022000002 .045 .035 C .07000001 .040000004 .09200001 .061 .09200001 .089 C .09200001 .116000007 .07000001 .124000009 .055000009 .124000009 C .025 .124000009 0 .098000008 0 .06600001 C 0 .020000002 .050000006 0 .094000007 0 C .16000001 0 .19600001 .07000001 .19900002 .076000008 C .21100001 .039 .24700003 0 .307 0 C .41 0 .467 .12900001 .467 .15400002 C .467 .16400002 .458 .16400002 .455 .16400002 C .446 .16400002 .444 .16000001 .442 .15300001 C .409 .046 .341 .022000002 .30900003 .022000002 C .27 .022000002 .254 .054 .254 .08800001 C .254 .11000001 .26 .13200002 .271 .17600002 L .305 .31300003 Z "/>
</symbol>
<use xlink:href="#font_3_2" transform="matrix(9.9626,0,0,-9.9626,319.32594,103.687587)"/>
<symbol id="font_3_1">
<path d="M .314 .605 L .4 .605 C .42000003 .605 .43 .605 .43 .625 C .43 .63600006 .42000003 .63600006 .40300004 .63600006 L .32000003 .63600006 L .34100003 .75 C .34500004 .771 .35900004 .842 .365 .8540001 C .374 .873 .39100004 .888 .41200004 .888 C .416 .888 .44200004 .888 .461 .87 C .41700004 .86600008 .407 .8310001 .407 .816 C .407 .793 .425 .781 .444 .781 C .47 .781 .49900005 .8030001 .49900005 .8410001 C .49900005 .8870001 .45300005 .9100001 .41200004 .9100001 C .37800003 .9100001 .31500004 .8920001 .28500004 .793 C .279 .7720001 .27600003 .7620001 .252 .63600006 L .18300002 .63600006 C .164 .63600006 .15300001 .63600006 .15300001 .61700007 C .15300001 .605 .162 .605 .18100001 .605 L .24700001 .605 L .172 .21000001 C .15400002 .113000009 .13700001 .022 .08500001 .022 C .081 .022 .056 .022 .037 .040000008 C .083000008 .043000014 .09200001 .07900001 .09200001 .094000007 C .09200001 .117000009 .074 .12900001 .055 .12900001 C .029 .12900001 0 .10700001 0 .069000009 C 0 .024000004 .044 0 .08500001 0 C .14 0 .18 .059 .19800002 .09700001 C .23000002 .16000001 .25300003 .28100003 .254 .28800003 L .314 .605 Z "/>
</symbol>
<use xlink:href="#font_3_1" transform="matrix(9.9626,0,0,-9.9626,155.37702,12.355322)"/>
</svg>
