<?xml version="1.0" encoding="UTF-8" standalone="no"?>
<!DOCTYPE svg PUBLIC "-//W3C//DTD SVG 1.1//EN" "http://www.w3.org/Graphics/SVG/1.1/DTD/svg11.dtd">
<svg xmlns="http://www.w3.org/2000/svg" xmlns:xlink="http://www.w3.org/1999/xlink" version="1.1" width="328.411pt" height="191.426pt" viewBox="0 0 328.411 191.426">
<path transform="matrix(1,0,0,-1,.199,184.40599)" stroke-width="1" stroke-linecap="butt" stroke-miterlimit="10" stroke-linejoin="miter" fill="none" stroke="#929292" d="M 31.51825 83.45815 L 31.51825 87.71002 M 63.03651 83.45815 L 63.03651 87.71002 M 94.55478 83.45815 L 94.55478 87.71002 M 126.07304 83.45815 L 126.07304 87.71002 M 189.10956 83.45815 L 189.10956 87.71002 M 220.62783 83.45815 L 220.62783 87.71002 M 252.14609 83.45815 L 252.14609 87.71002 M 283.66435 83.45815 L 283.66435 87.71002 "/>
<path transform="matrix(1,0,0,-1,.199,184.40599)" stroke-width="1" stroke-linecap="butt" stroke-miterlimit="10" stroke-linejoin="miter" fill="none" stroke="#929292" d="M 155.4654 0 L 159.7172 0 M 155.4654 28.52803 L 159.7172 28.52803 M 155.4654 57.05606 L 159.7172 57.05606 M 155.4654 114.11212 L 159.7172 114.11212 M 155.4654 142.64015 L 159.7172 142.64015 M 155.4654 171.16819 L 159.7172 171.16819 "/>
<path transform="matrix(1,0,0,-1,.199,184.40599)" stroke-width="1" stroke-linecap="butt" stroke-miterlimit="10" stroke-linejoin="miter" fill="none" stroke="#000000" d="M 0 85.58409 L 313.18504 85.58409 "/>
<path transform="matrix(1,0,0,-1,313.38404,98.8219)" d="M 1.99252 0 L -1.19551 1.59401 L 0 0 L -1.19551 -1.59401 "/>
<path transform="matrix(1,0,0,-1,.199,184.40599)" stroke-width="1" stroke-linecap="butt" stroke-miterlimit="10" stroke-linejoin="miter" fill="none" stroke="#000000" d="M 157.59131 0 L 157.59131 169.17566 "/>
<path transform="matrix(0,-1,-1,-0,157.79032,15.230331)" d="M 1.99252 0 L -1.19551 1.59401 L 0 0 L -1.19551 -1.59401 "/>
<symbol id="font_0_1">
<path d="M .57600006 0 C .59300008 0 .611 0 .611 .019999996 C .611 .040000008 .59300008 .040000008 .57600006 .040000008 L .035000005 .040000008 C .018 .040000008 0 .040000008 0 .019999996 C 0 0 .018 0 .035000005 0 L .57600006 0 Z "/>
</symbol>
<use xlink:href="#font_0_1" transform="matrix(9.9626,0,0,-9.9626,26.178896,108.6716)"/>
<symbol id="font_1_4">
<path d="M .266 .165 L .266 .078 C .266 .042000005 .26400004 .031000002 .19000001 .031000002 L .16900002 .031000002 L .16900002 0 C .21000001 .003 .26200003 .003 .30400003 .003 C .34600003 .003 .39900003 .003 .44000004 0 L .44000004 .031000002 L .41900004 .031000002 C .34500004 .031000002 .34300003 .042000005 .34300003 .078 L .34300003 .165 L .44300003 .165 L .44300003 .19600001 L .34300003 .19600001 L .34300003 .651 C .34300003 .671 .34300003 .67700007 .32700003 .67700007 C .31800003 .67700007 .31500004 .67700007 .307 .665 L 0 .19600001 L 0 .165 L .266 .165 M .272 .19600001 L .028 .19600001 L .272 .569 L .272 .19600001 Z "/>
</symbol>
<use xlink:href="#font_1_4" transform="matrix(9.9626,0,0,-9.9626,33.37995,110.963)"/>
<use xlink:href="#font_0_1" transform="matrix(9.9626,0,0,-9.9626,57.6969,108.6716)"/>
<symbol id="font_1_3">
<path d="M .24800003 .37400005 C .33 .40100003 .388 .47100006 .388 .55 C .388 .632 .3 .688 .204 .688 C .10300001 .688 .027000003 .628 .027000003 .55200007 C .027000003 .519 .049000004 .5 .078 .5 C .109000008 .5 .12900001 .522 .12900001 .55100008 C .12900001 .6010001 .082 .6010001 .067 .6010001 C .098 .65000006 .164 .66300007 .20000002 .66300007 C .24100003 .66300007 .29600004 .64100006 .29600004 .55100008 C .29600004 .53900006 .29400004 .48100005 .268 .43700005 C .238 .38900004 .204 .38600005 .17900002 .38500003 C .171 .38400004 .14700002 .38200004 .14000002 .38200004 C .132 .38100005 .125 .38000003 .125 .37000004 C .125 .35900004 .132 .35900004 .14900002 .35900004 L .19300002 .35900004 C .275 .35900004 .312 .29100005 .312 .193 C .312 .057000005 .24300003 .028 .199 .028 C .15600002 .028 .081 .045 .046000005 .104 C .081 .09900001 .11200001 .12100001 .11200001 .15900001 C .11200001 .19500001 .085 .215 .056 .215 C .031999999 .215 0 .201 0 .157 C 0 .06600001 .093 0 .20200002 0 C .32400004 0 .41500003 .091000009 .41500003 .193 C .41500003 .27500005 .35200004 .35300005 .24800003 .37400005 Z "/>
</symbol>
<use xlink:href="#font_1_3" transform="matrix(9.9626,0,0,-9.9626,65.03743,111.182178)"/>
<use xlink:href="#font_0_1" transform="matrix(9.9626,0,0,-9.9626,89.2149,108.6716)"/>
<symbol id="font_1_2">
<path d="M .07700001 .07700001 L .18300002 .18 C .33900003 .31800003 .39900003 .372 .39900003 .47200004 C .39900003 .586 .30900003 .666 .18700002 .666 C .074 .666 0 .574 0 .485 C 0 .42900003 .05 .42900003 .053000008 .42900003 C .07000001 .42900003 .105000007 .441 .105000007 .48200003 C .105000007 .508 .08700001 .53400006 .052000006 .53400006 C .044000005 .53400006 .042000008 .53400006 .039 .53300008 C .062000004 .59800007 .11600001 .63500007 .17400001 .63500007 C .26500003 .63500007 .308 .554 .308 .47200004 C .308 .39200003 .25800003 .31300003 .20300003 .25100003 L .011000004 .037 C 0 .026 0 .024 0 0 L .37100003 0 L .39900003 .17400001 L .374 .17400001 C .36900003 .14400001 .36200003 .1 .352 .085 C .345 .07700001 .279 .07700001 .257 .07700001 L .07700001 .07700001 Z "/>
</symbol>
<use xlink:href="#font_1_2" transform="matrix(9.9626,0,0,-9.9626,96.63513,110.963)"/>
<use xlink:href="#font_0_1" transform="matrix(9.9626,0,0,-9.9626,120.732898,108.6716)"/>
<symbol id="font_1_1">
<path d="M .205 .64000007 C .205 .66400006 .205 .666 .18200003 .666 C .120000008 .60200008 .032000007 .60200008 0 .60200008 L 0 .57100006 C .020000004 .57100006 .07900001 .57100006 .13100001 .597 L .13100001 .079 C .13100001 .043 .128 .031000002 .038000004 .031000002 L .0060000049 .031000002 L .0060000049 0 C .04100001 .003 .128 .003 .168 .003 C .20800002 .003 .29500003 .003 .33000005 0 L .33000005 .031000002 L .29800005 .031000002 C .20800002 .031000002 .205 .042000005 .205 .079 L .205 .64000007 Z "/>
</symbol>
<use xlink:href="#font_1_1" transform="matrix(9.9626,0,0,-9.9626,128.54067,110.963)"/>
<use xlink:href="#font_1_1" transform="matrix(9.9626,0,0,-9.9626,187.70269,110.963)"/>
<use xlink:href="#font_1_2" transform="matrix(9.9626,0,0,-9.9626,218.83213,110.963)"/>
<use xlink:href="#font_1_3" transform="matrix(9.9626,0,0,-9.9626,250.26943,111.182178)"/>
<use xlink:href="#font_1_4" transform="matrix(9.9626,0,0,-9.9626,281.64799,110.963)"/>
<use xlink:href="#font_0_1" transform="matrix(9.9626,0,0,-9.9626,140.1659,184.90959)"/>
<use xlink:href="#font_1_3" transform="matrix(9.9626,0,0,-9.9626,147.50643,187.42017)"/>
<use xlink:href="#font_0_1" transform="matrix(9.9626,0,0,-9.9626,140.1659,156.3826)"/>
<use xlink:href="#font_1_2" transform="matrix(9.9626,0,0,-9.9626,147.58612,158.674)"/>
<use xlink:href="#font_0_1" transform="matrix(9.9626,0,0,-9.9626,140.1659,127.8546)"/>
<use xlink:href="#font_1_1" transform="matrix(9.9626,0,0,-9.9626,147.97467,130.146)"/>
<use xlink:href="#font_1_1" transform="matrix(9.9626,0,0,-9.9626,147.97469,73.506)"/>
<use xlink:href="#font_1_2" transform="matrix(9.9626,0,0,-9.9626,147.58614,44.977998)"/>
<use xlink:href="#font_1_3" transform="matrix(9.9626,0,0,-9.9626,147.50644,16.669175)"/>
<path transform="matrix(1,0,0,-1,.199,184.40599)" stroke-width="1" stroke-linecap="butt" stroke-miterlimit="10" stroke-linejoin="miter" fill="none" stroke="#000000" d="M 0 85.58409 L 13.13239 85.58409 L 26.26479 85.58409 L 39.39719 85.58409 L 52.52957 85.58409 L 65.66197 85.58409 L 78.79439 85.58409 L 91.92679 85.58409 L 105.05917 85.58409 L 118.19157 85.58409 L 131.32398 85.58409 L 144.45638 85.58409 L 157.58878 85.58409 L 170.72118 85.58409 L 183.85358 85.58409 L 196.98596 85.58409 L 210.11837 85.58409 L 223.25078 85.58409 L 236.38317 85.58409 L 249.51557 85.58409 L 262.64796 85.58409 L 275.78038 85.58409 L 288.91279 85.58409 L 302.04518 85.58409 L 315.17759 85.58409 "/>
<path transform="matrix(1,0,0,-1,.199,184.40599)" stroke-width="1" stroke-linecap="butt" stroke-miterlimit="10" stroke-linejoin="miter" fill="none" stroke="#000000" d="M 157.59131 0 L 157.59131 171.16819 "/>
<symbol id="font_2_1">
<path d="M .133 .113000009 C .09 .037 .047000003 .033 .011999998 .031000002 C .0009999983 .030000002 0 .013 0 .012 C 0 .009000001 .0009999983 0 .011999998 0 C .036999998 0 .066 .003 .09200001 .003 C .12300001 .003 .15500002 0 .18500002 0 C .19000001 0 .20300003 0 .20300003 .019000002 C .20300003 .030000002 .19500001 .030000002 .187 .031000002 C .18100001 .032 .14500001 .034 .14500001 .065000008 C .14500001 .074 .15 .086 .15900001 .10300001 L .23100002 .22900002 L .459 .22900002 L .47000004 .063 C .47000004 .043 .44599999 .031000002 .403 .031000002 C .39200003 .031000002 .38 .031000002 .38 .012 C .38 0 .39200003 0 .395 0 C .432 0 .472 .003 .51 .003 C .545 .003 .58100005 0 .615 0 C .621 0 .633 0 .633 .018000002 C .633 .031000002 .625 .031000002 .609 .031000002 C .55700007 .031000002 .554 .039 .552 .065000008 L .509 .69100007 C .508 .71300008 .507 .716 .491 .716 C .47500003 .716 .47100003 .70900008 .46500004 .698 L .133 .113000009 M .43400003 .587 L .45700003 .26000003 L .24800001 .26000003 L .43400003 .587 Z "/>
</symbol>
<use xlink:href="#font_2_1" transform="matrix(9.9626,0,0,-9.9626,50.664796,159.28199)"/>
<symbol id="font_2_2">
<path d="M .32000003 .61600008 C .32900004 .652 .33600004 .652 .36900003 .652 L .48700006 .652 C .57100006 .652 .58100005 .58400008 .58100005 .55300006 C .58100005 .46800003 .504 .36600004 .39000003 .36600004 L .25800003 .36600004 L .32000003 .61600008 M .47300006 .35700003 C .595 .384 .669 .47000004 .669 .54700008 C .669 .619 .61 .683 .50100007 .683 L .19000003 .683 C .174 .683 .16300002 .683 .16300002 .66400006 C .16300002 .652 .171 .652 .19000003 .652 C .22100002 .652 .24800003 .652 .24800003 .63500007 C .24800003 .632 .24800003 .63000008 .24400002 .61600008 L .109000008 .07300001 C .101 .039 .095000009 .031000002 .027000003 .031000002 C .011 .031000002 0 .031000002 0 .012 C 0 0 .008999996 0 .024999999 0 L .35500003 0 C .49700005 0 .61200007 .115 .61200007 .21900001 C .61200007 .30200003 .545 .34800003 .47300006 .35700003 M .33300004 .031000002 L .20900002 .031000002 C .178 .031000002 .178 .034 .178 .041 C .178 .047000003 .181 .057000005 .18200001 .063 L .252 .344 L .42400003 .344 C .517 .344 .523 .25800003 .523 .23200001 C .523 .135 .44300003 .031000002 .33300004 .031000002 Z "/>
</symbol>
<use xlink:href="#font_2_2" transform="matrix(9.9626,0,0,-9.9626,85.59057,93.66899)"/>
<symbol id="font_2_3">
<path d="M .6600001 .70300009 C .661 .7070001 .66200008 .71300008 .66200008 .71700009 C .66200008 .71900007 .661 .72700008 .651 .72700008 C .64900007 .72700008 .64400008 .72700008 .635 .716 L .572 .642 C .52900007 .711 .47100006 .72700008 .42100004 .72700008 C .215 .72700008 0 .50200006 0 .26700003 C 0 .103 .10699999 0 .245 0 C .44000004 0 .549 .214 .549 .26200003 C .549 .272 .53900006 .272 .53400006 .272 C .528 .272 .521 .272 .518 .26400004 C .46700005 .095000009 .342 .031000004 .259 .031000004 C .17500001 .031000004 .08700001 .087000008 .08700001 .22900002 C .08700001 .29100005 .11200002 .44800005 .192 .558 C .26000003 .65000006 .35200004 .69600006 .42900006 .69600006 C .5350001 .69600006 .571 .6 .571 .513 C .571 .48700006 .566 .45500005 .566 .45200003 C .566 .44200004 .576 .44200004 .581 .44200004 C .592 .44200004 .595 .44300006 .599 .46000005 L .6600001 .70300009 Z "/>
</symbol>
<use xlink:href="#font_2_3" transform="matrix(9.9626,0,0,-9.9626,196.69139,159.50116)"/>
<symbol id="font_2_4">
<path d="M .109000008 .07300001 C .101 .039 .095000009 .031000002 .027000003 .031000002 C .011 .031000002 0 .031000002 0 .012 C 0 0 .009000003 0 .025000006 0 L .33200003 0 C .521 0 .712 .21300002 .712 .43800003 C .712 .58100005 .631 .683 .502 .683 L .19000003 .683 C .17400003 .683 .16300002 .683 .16300002 .66400006 C .16300002 .652 .171 .652 .19000003 .652 C .22100002 .652 .24800003 .652 .24800003 .63500007 C .24800003 .632 .24800003 .63000008 .24400002 .61600008 L .109000008 .07300001 M .323 .61600008 C .33200003 .651 .33900003 .652 .37200005 .652 L .469 .652 C .55 .652 .629 .60700008 .629 .476 C .629 .41700004 .6 .23 .515 .13000001 C .46600006 .07300001 .39500005 .031000002 .31500004 .031000002 L .21200001 .031000002 C .18100003 .031000002 .18100003 .034 .18100003 .041 C .18100003 .047000003 .18400002 .057000005 .185 .063 L .323 .61600008 Z "/>
</symbol>
<use xlink:href="#font_2_4" transform="matrix(9.9626,0,0,-9.9626,255.51265,73.699)"/>
<path transform="matrix(1,0,0,-1,.199,184.40599)" d="M 65.02907 28.52803 C 65.02907 29.6285 64.137 30.52058 63.03651 30.52058 C 61.93605 30.52058 61.04396 29.6285 61.04396 28.52803 C 61.04396 27.42755 61.93605 26.53548 63.03651 26.53548 C 64.137 26.53548 65.02907 27.42755 65.02907 28.52803 Z M 63.03651 28.52803 " fill="#000080"/>
<path transform="matrix(1,0,0,-1,.199,184.40599)" stroke-width="1" stroke-linecap="butt" stroke-miterlimit="10" stroke-linejoin="miter" fill="none" stroke="#000080" d="M 65.02907 28.52803 C 65.02907 29.6285 64.137 30.52058 63.03651 30.52058 C 61.93605 30.52058 61.04396 29.6285 61.04396 28.52803 C 61.04396 27.42755 61.93605 26.53548 63.03651 26.53548 C 64.137 26.53548 65.02907 27.42755 65.02907 28.52803 Z M 63.03651 28.52803 "/>
<path transform="matrix(1,0,0,-1,.199,184.40599)" d="M 96.54733 85.58409 C 96.54733 86.68456 95.65524 87.57664 94.55478 87.57664 C 93.4543 87.57664 92.56223 86.68456 92.56223 85.58409 C 92.56223 84.48361 93.4543 83.59154 94.55478 83.59154 C 95.65524 83.59154 96.54733 84.48361 96.54733 85.58409 Z M 94.55478 85.58409 " fill="#000080"/>
<path transform="matrix(1,0,0,-1,.199,184.40599)" stroke-width="1" stroke-linecap="butt" stroke-miterlimit="10" stroke-linejoin="miter" fill="none" stroke="#000080" d="M 96.54733 85.58409 C 96.54733 86.68456 95.65524 87.57664 94.55478 87.57664 C 93.4543 87.57664 92.56223 86.68456 92.56223 85.58409 C 92.56223 84.48361 93.4543 83.59154 94.55478 83.59154 C 95.65524 83.59154 96.54733 84.48361 96.54733 85.58409 Z M 94.55478 85.58409 "/>
<path transform="matrix(1,0,0,-1,.199,184.40599)" d="M 191.10211 28.52803 C 191.10211 29.6285 190.21004 30.52058 189.10956 30.52058 C 188.0091 30.52058 187.117 29.6285 187.117 28.52803 C 187.117 27.42755 188.0091 26.53548 189.10956 26.53548 C 190.21004 26.53548 191.10211 27.42755 191.10211 28.52803 Z M 189.10956 28.52803 " fill="#000080"/>
<path transform="matrix(1,0,0,-1,.199,184.40599)" stroke-width="1" stroke-linecap="butt" stroke-miterlimit="10" stroke-linejoin="miter" fill="none" stroke="#000080" d="M 191.10211 28.52803 C 191.10211 29.6285 190.21004 30.52058 189.10956 30.52058 C 188.0091 30.52058 187.117 29.6285 187.117 28.52803 C 187.117 27.42755 188.0091 26.53548 189.10956 26.53548 C 190.21004 26.53548 191.10211 27.42755 191.10211 28.52803 Z M 189.10956 28.52803 "/>
<path transform="matrix(1,0,0,-1,.199,184.40599)" d="M 254.13864 114.11212 C 254.13864 115.2126 253.24655 116.10468 252.14609 116.10468 C 251.04561 116.10468 250.15354 115.2126 250.15354 114.11212 C 250.15354 113.01166 251.04561 112.11957 252.14609 112.11957 C 253.24655 112.11957 254.13864 113.01166 254.13864 114.11212 Z M 252.14609 114.11212 " fill="#000080"/>
<path transform="matrix(1,0,0,-1,.199,184.40599)" stroke-width="1" stroke-linecap="butt" stroke-miterlimit="10" stroke-linejoin="miter" fill="none" stroke="#000080" d="M 254.13864 114.11212 C 254.13864 115.2126 253.24655 116.10468 252.14609 116.10468 C 251.04561 116.10468 250.15354 115.2126 250.15354 114.11212 C 250.15354 113.01166 251.04561 112.11957 252.14609 112.11957 C 253.24655 112.11957 254.13864 113.01166 254.13864 114.11212 Z M 252.14609 114.11212 "/>
<symbol id="font_3_1">
<path d="M .059000009 .07000001 C .056 .055000005 .050000006 .032 .050000006 .027000003 C .050000006 .009000001 .064 0 .079 0 C .091000009 0 .10900001 .008000001 .11600001 .028 C .11700001 .030000002 .12900001 .077 .135 .102000009 L .157 .19200002 C .163 .21400002 .16900002 .23600002 .17400001 .259 C .17800002 .27600003 .186 .305 .187 .30900003 C .202 .34000004 .255 .43100003 .35 .43100003 C .395 .43100003 .404 .39400003 .404 .36100004 C .404 .29900003 .355 .17100002 .33900003 .128 C .33 .105000007 .329 .093 .329 .082 C .329 .035 .364 0 .411 0 C .50500008 0 .54200008 .14600002 .54200008 .15400002 C .54200008 .16400002 .53300008 .16400002 .53000006 .16400002 C .52000007 .16400002 .52000007 .16100002 .51500007 .14600002 C .49500004 .078 .462 .022000002 .41300003 .022000002 C .396 .022000002 .389 .032 .389 .055000005 C .389 .080000009 .398 .104 .407 .126 C .426 .17900002 .468 .28900004 .468 .34600003 C .468 .41300003 .425 .45300005 .35300002 .45300005 C .263 .45300005 .21400002 .38900004 .19700001 .36600004 C .19200002 .42200003 .15100001 .45300005 .105000007 .45300005 C .059000009 .45300005 .040000008 .41400004 .030000003 .39600004 C .014 .36200003 0 .30300004 0 .29900003 C 0 .28900004 .01 .28900004 .012 .28900004 C .022000002 .28900004 .023 .29000003 .029000001 .31200005 C .046000005 .38300003 .06600001 .43100003 .10200001 .43100003 C .12200001 .43100003 .133 .418 .133 .38500003 C .133 .36400003 .13000001 .35300002 .11700001 .30100004 L .059000009 .07000001 Z "/>
</symbol>
<use xlink:href="#font_3_1" transform="matrix(9.9626,0,0,-9.9626,319.32594,101.05759)"/>
<symbol id="font_3_2">
<path d="M .45700003 .586 C .461 .6 .461 .602 .461 .609 C .461 .62700006 .447 .63600006 .432 .63600006 C .42200003 .63600006 .40600003 .63 .397 .615 C .395 .61 .387 .579 .38300003 .561 C .37600003 .535 .36900003 .508 .363 .48100005 L .318 .301 C .314 .286 .271 .21600002 .20500002 .21600002 C .15400002 .21600002 .143 .26000003 .143 .29700003 C .143 .34300003 .16000001 .40500004 .194 .49300004 C .21000001 .53400006 .21400002 .545 .21400002 .56500008 C .21400002 .61 .18200001 .6470001 .13200002 .6470001 C .037 .6470001 0 .50200006 0 .49300004 C 0 .48300005 .01 .48300005 .012 .48300005 C .022000002 .48300005 .023 .485 .028000003 .50100007 C .055000009 .595 .095000009 .625 .12900001 .625 C .13700001 .625 .15400002 .625 .15400002 .59300008 C .15400002 .568 .14400001 .54200008 .13700001 .523 C .097 .41700004 .079 .36 .079 .31300003 C .079 .224 .142 .194 .201 .194 C .24000003 .194 .274 .21100001 .30200003 .23900002 C .289 .187 .277 .13800001 .237 .08500001 C .21100001 .051 .17300001 .022 .127 .022 C .113000009 .022 .068 .025000006 .051000008 .06400001 C .067 .06400001 .080000009 .06400001 .094000007 .076000008 C .104 .08500001 .11400001 .098000008 .11400001 .117000009 C .11400001 .148 .087000008 .15200001 .07700001 .15200001 C .054000006 .15200001 .021 .136 .021 .087000008 C .021 .037 .065000008 0 .127 0 C .23 0 .333 .091000009 .361 .20400001 L .45700003 .586 Z "/>
</symbol>
<use xlink:href="#font_3_2" transform="matrix(9.9626,0,0,-9.9626,155.49192,9.726324)"/>
</svg>
