<?xml version="1.0" encoding="UTF-8" standalone="no"?>
<!DOCTYPE svg PUBLIC "-//W3C//DTD SVG 1.1//EN" "http://www.w3.org/Graphics/SVG/1.1/DTD/svg11.dtd">
<svg xmlns="http://www.w3.org/2000/svg" xmlns:xlink="http://www.w3.org/1999/xlink" version="1.1" width="326.028pt" height="192.007pt" viewBox="0 0 326.028 192.007">
<path transform="matrix(1,0,0,-1,.199,184.987)" stroke-width="1" stroke-linecap="butt" stroke-miterlimit="10" stroke-linejoin="miter" fill="none" stroke="#cbcbcb" d="M 31.51825 0 L 31.51825 171.16819 M 63.03651 0 L 63.03651 171.16819 M 94.55478 0 L 94.55478 171.16819 M 126.07304 0 L 126.07304 171.16819 M 189.10956 0 L 189.10956 171.16819 M 220.62783 0 L 220.62783 171.16819 M 252.14609 0 L 252.14609 171.16819 M 283.66435 0 L 283.66435 171.16819 "/>
<path transform="matrix(1,0,0,-1,.199,184.987)" stroke-width="1" stroke-linecap="butt" stroke-miterlimit="10" stroke-linejoin="miter" fill="none" stroke="#cbcbcb" d="M 0 0 L 315.17759 0 M 0 28.52803 L 315.17759 28.52803 M 0 57.05606 L 315.17759 57.05606 M 0 114.11212 L 315.17759 114.11212 M 0 142.64015 L 315.17759 142.64015 M 0 171.16819 L 315.17759 171.16819 "/>
<path transform="matrix(1,0,0,-1,.199,184.987)" stroke-width="1" stroke-linecap="butt" stroke-miterlimit="10" stroke-linejoin="miter" fill="none" stroke="#929292" d="M 31.51825 83.45815 L 31.51825 87.71002 M 63.03651 83.45815 L 63.03651 87.71002 M 94.55478 83.45815 L 94.55478 87.71002 M 126.07304 83.45815 L 126.07304 87.71002 M 189.10956 83.45815 L 189.10956 87.71002 M 220.62783 83.45815 L 220.62783 87.71002 M 252.14609 83.45815 L 252.14609 87.71002 M 283.66435 83.45815 L 283.66435 87.71002 "/>
<path transform="matrix(1,0,0,-1,.199,184.987)" stroke-width="1" stroke-linecap="butt" stroke-miterlimit="10" stroke-linejoin="miter" fill="none" stroke="#929292" d="M 155.4654 0 L 159.7172 0 M 155.4654 28.52803 L 159.7172 28.52803 M 155.4654 57.05606 L 159.7172 57.05606 M 155.4654 114.11212 L 159.7172 114.11212 M 155.4654 142.64015 L 159.7172 142.64015 M 155.4654 171.16819 L 159.7172 171.16819 "/>
<path transform="matrix(1,0,0,-1,.199,184.987)" stroke-width="1" stroke-linecap="butt" stroke-miterlimit="10" stroke-linejoin="miter" fill="none" stroke="#000000" d="M 0 85.58409 L 313.18504 85.58409 "/>
<path transform="matrix(1,0,0,-1,313.38404,99.40291)" d="M 1.99252 0 L -1.19551 1.59401 L 0 0 L -1.19551 -1.59401 "/>
<path transform="matrix(1,0,0,-1,.199,184.987)" stroke-width="1" stroke-linecap="butt" stroke-miterlimit="10" stroke-linejoin="miter" fill="none" stroke="#000000" d="M 157.59131 0 L 157.59131 169.17566 "/>
<path transform="matrix(0,-1,-1,-0,157.79032,15.81134)" d="M 1.99252 0 L -1.19551 1.59401 L 0 0 L -1.19551 -1.59401 "/>
<symbol id="font_0_1">
<path d="M .57600006 0 C .59300008 0 .611 0 .611 .019999996 C .611 .040000008 .59300008 .040000008 .57600006 .040000008 L .035000005 .040000008 C .018 .040000008 0 .040000008 0 .019999996 C 0 0 .018 0 .035000005 0 L .57600006 0 Z "/>
</symbol>
<use xlink:href="#font_0_1" transform="matrix(9.9626,0,0,-9.9626,26.178896,109.252597)"/>
<symbol id="font_1_4">
<path d="M .266 .165 L .266 .078 C .266 .042000005 .26400004 .031000002 .19000001 .031000002 L .16900002 .031000002 L .16900002 0 C .21000001 .003 .26200003 .003 .30400003 .003 C .34600003 .003 .39900003 .003 .44000004 0 L .44000004 .031000002 L .41900004 .031000002 C .34500004 .031000002 .34300003 .042000005 .34300003 .078 L .34300003 .165 L .44300003 .165 L .44300003 .19600001 L .34300003 .19600001 L .34300003 .651 C .34300003 .671 .34300003 .67700007 .32700003 .67700007 C .31800003 .67700007 .31500004 .67700007 .307 .665 L 0 .19600001 L 0 .165 L .266 .165 M .272 .19600001 L .028 .19600001 L .272 .569 L .272 .19600001 Z "/>
</symbol>
<use xlink:href="#font_1_4" transform="matrix(9.9626,0,0,-9.9626,33.37995,111.54399)"/>
<use xlink:href="#font_0_1" transform="matrix(9.9626,0,0,-9.9626,57.6969,109.252597)"/>
<symbol id="font_1_3">
<path d="M .24800003 .37400005 C .33 .40100003 .388 .47100006 .388 .55 C .388 .632 .3 .688 .204 .688 C .10300001 .688 .027000003 .628 .027000003 .55200007 C .027000003 .519 .049000004 .5 .078 .5 C .109000008 .5 .12900001 .522 .12900001 .55100008 C .12900001 .6010001 .082 .6010001 .067 .6010001 C .098 .65000006 .164 .66300007 .20000002 .66300007 C .24100003 .66300007 .29600004 .64100006 .29600004 .55100008 C .29600004 .53900006 .29400004 .48100005 .268 .43700005 C .238 .38900004 .204 .38600005 .17900002 .38500003 C .171 .38400004 .14700002 .38200004 .14000002 .38200004 C .132 .38100005 .125 .38000003 .125 .37000004 C .125 .35900004 .132 .35900004 .14900002 .35900004 L .19300002 .35900004 C .275 .35900004 .312 .29100005 .312 .193 C .312 .057000005 .24300003 .028 .199 .028 C .15600002 .028 .081 .045 .046000005 .104 C .081 .09900001 .11200001 .12100001 .11200001 .15900001 C .11200001 .19500001 .085 .215 .056 .215 C .031999999 .215 0 .201 0 .157 C 0 .06600001 .093 0 .20200002 0 C .32400004 0 .41500003 .091000009 .41500003 .193 C .41500003 .27500005 .35200004 .35300005 .24800003 .37400005 Z "/>
</symbol>
<use xlink:href="#font_1_3" transform="matrix(9.9626,0,0,-9.9626,65.03743,111.76317)"/>
<use xlink:href="#font_0_1" transform="matrix(9.9626,0,0,-9.9626,89.2149,109.252597)"/>
<symbol id="font_1_2">
<path d="M .07700001 .07700001 L .18300002 .18 C .33900003 .31800003 .39900003 .372 .39900003 .47200004 C .39900003 .586 .30900003 .666 .18700002 .666 C .074 .666 0 .574 0 .485 C 0 .42900003 .05 .42900003 .053000008 .42900003 C .07000001 .42900003 .105000007 .441 .105000007 .48200003 C .105000007 .508 .08700001 .53400006 .052000006 .53400006 C .044000005 .53400006 .042000008 .53400006 .039 .53300008 C .062000004 .59800007 .11600001 .63500007 .17400001 .63500007 C .26500003 .63500007 .308 .554 .308 .47200004 C .308 .39200003 .25800003 .31300003 .20300003 .25100003 L .011000004 .037 C 0 .026 0 .024 0 0 L .37100003 0 L .39900003 .17400001 L .374 .17400001 C .36900003 .14400001 .36200003 .1 .352 .085 C .345 .07700001 .279 .07700001 .257 .07700001 L .07700001 .07700001 Z "/>
</symbol>
<use xlink:href="#font_1_2" transform="matrix(9.9626,0,0,-9.9626,96.63513,111.54399)"/>
<use xlink:href="#font_0_1" transform="matrix(9.9626,0,0,-9.9626,120.732898,109.252597)"/>
<symbol id="font_1_1">
<path d="M .205 .64000007 C .205 .66400006 .205 .666 .18200003 .666 C .120000008 .60200008 .032000007 .60200008 0 .60200008 L 0 .57100006 C .020000004 .57100006 .07900001 .57100006 .13100001 .597 L .13100001 .079 C .13100001 .043 .128 .031000002 .038000004 .031000002 L .0060000049 .031000002 L .0060000049 0 C .04100001 .003 .128 .003 .168 .003 C .20800002 .003 .29500003 .003 .33000005 0 L .33000005 .031000002 L .29800005 .031000002 C .20800002 .031000002 .205 .042000005 .205 .079 L .205 .64000007 Z "/>
</symbol>
<use xlink:href="#font_1_1" transform="matrix(9.9626,0,0,-9.9626,128.54067,111.54399)"/>
<use xlink:href="#font_1_1" transform="matrix(9.9626,0,0,-9.9626,187.70269,111.54399)"/>
<use xlink:href="#font_1_2" transform="matrix(9.9626,0,0,-9.9626,218.83213,111.54399)"/>
<use xlink:href="#font_1_3" transform="matrix(9.9626,0,0,-9.9626,250.26943,111.76317)"/>
<use xlink:href="#font_1_4" transform="matrix(9.9626,0,0,-9.9626,281.64799,111.54399)"/>
<use xlink:href="#font_0_1" transform="matrix(9.9626,0,0,-9.9626,140.1659,185.4906)"/>
<use xlink:href="#font_1_3" transform="matrix(9.9626,0,0,-9.9626,147.50643,188.00118)"/>
<use xlink:href="#font_0_1" transform="matrix(9.9626,0,0,-9.9626,140.1659,156.96361)"/>
<use xlink:href="#font_1_2" transform="matrix(9.9626,0,0,-9.9626,147.58612,159.255)"/>
<use xlink:href="#font_0_1" transform="matrix(9.9626,0,0,-9.9626,140.1659,128.43561)"/>
<use xlink:href="#font_1_1" transform="matrix(9.9626,0,0,-9.9626,147.97467,130.727)"/>
<use xlink:href="#font_1_1" transform="matrix(9.9626,0,0,-9.9626,147.97469,74.08699)"/>
<use xlink:href="#font_1_2" transform="matrix(9.9626,0,0,-9.9626,147.58614,45.559007)"/>
<use xlink:href="#font_1_3" transform="matrix(9.9626,0,0,-9.9626,147.50644,17.250184)"/>
<path transform="matrix(1,0,0,-1,.199,184.987)" stroke-width="1" stroke-linecap="butt" stroke-miterlimit="10" stroke-linejoin="miter" fill="none" stroke="#000000" d="M 0 85.58409 L 13.13239 85.58409 L 26.26479 85.58409 L 39.39719 85.58409 L 52.52957 85.58409 L 65.66197 85.58409 L 78.79439 85.58409 L 91.92679 85.58409 L 105.05917 85.58409 L 118.19157 85.58409 L 131.32398 85.58409 L 144.45638 85.58409 L 157.58878 85.58409 L 170.72118 85.58409 L 183.85358 85.58409 L 196.98596 85.58409 L 210.11837 85.58409 L 223.25078 85.58409 L 236.38317 85.58409 L 249.51557 85.58409 L 262.64796 85.58409 L 275.78038 85.58409 L 288.91279 85.58409 L 302.04518 85.58409 L 315.17759 85.58409 "/>
<path transform="matrix(1,0,0,-1,.199,184.987)" stroke-width="1" stroke-linecap="butt" stroke-miterlimit="10" stroke-linejoin="miter" fill="none" stroke="#000000" d="M 157.59131 0 L 157.59131 171.16819 "/>
<path transform="matrix(1,0,0,-1,.199,184.987)" stroke-width="1.19553" stroke-linecap="butt" stroke-miterlimit="10" stroke-linejoin="miter" fill="none" stroke="#000080" d="M 31.51825 142.64015 L 40.71106 151.40573 L 49.90385 156.62812 L 59.09666 158.64704 L 68.28947 157.80229 L 77.48227 154.43361 L 86.67508 148.88076 L 95.86787 141.48349 L 105.06068 132.58158 L 114.25348 122.51474 L 123.44629 111.62279 L 132.6391 100.24547 L 141.8319 88.72252 L 151.0247 77.39366 L 160.2175 66.59875 L 169.41031 56.67754 L 178.6031 47.96968 L 187.79593 40.81497 L 196.98874 35.55322 L 206.18154 32.52417 L 215.37435 32.06757 L 224.56714 34.52316 L 233.75995 40.2307 L 242.95275 49.53001 L 252.14556 62.7608 "/>
<path transform="matrix(1,0,0,-1,.199,184.987)" d="M 33.5108 142.64015 C 33.5108 143.74063 32.61873 144.6327 31.51825 144.6327 C 30.41779 144.6327 29.5257 143.74063 29.5257 142.64015 C 29.5257 141.53969 30.41779 140.6476 31.51825 140.6476 C 32.61873 140.6476 33.5108 141.53969 33.5108 142.64015 Z M 31.51825 142.64015 " fill="#000080"/>
<path transform="matrix(1,0,0,-1,.199,184.987)" stroke-width="1" stroke-linecap="butt" stroke-miterlimit="10" stroke-linejoin="miter" fill="none" stroke="#000080" d="M 33.5108 142.64015 C 33.5108 143.74063 32.61873 144.6327 31.51825 144.6327 C 30.41779 144.6327 29.5257 143.74063 29.5257 142.64015 C 29.5257 141.53969 30.41779 140.6476 31.51825 140.6476 C 32.61873 140.6476 33.5108 141.53969 33.5108 142.64015 Z M 31.51825 142.64015 "/>
<path transform="matrix(1,0,0,-1,.199,184.987)" d="M 254.13864 62.76166 C 254.13864 63.86214 253.24655 64.75421 252.14609 64.75421 C 251.04561 64.75421 250.15354 63.86214 250.15354 62.76166 C 250.15354 61.6612 251.04561 60.7691 252.14609 60.7691 C 253.24655 60.7691 254.13864 61.6612 254.13864 62.76166 Z M 252.14609 62.76166 " fill="#ffffff"/>
<path transform="matrix(1,0,0,-1,.199,184.987)" stroke-width="1" stroke-linecap="butt" stroke-miterlimit="10" stroke-linejoin="miter" fill="none" stroke="#000080" d="M 254.13864 62.76166 C 254.13864 63.86214 253.24655 64.75421 252.14609 64.75421 C 251.04561 64.75421 250.15354 63.86214 250.15354 62.76166 C 250.15354 61.6612 251.04561 60.7691 252.14609 60.7691 C 253.24655 60.7691 254.13864 61.6612 254.13864 62.76166 Z M 252.14609 62.76166 "/>
<symbol id="font_2_2">
<path d="M .18300002 .411 L .277 .411 C .29700003 .411 .307 .411 .307 .43100003 C .307 .44200004 .29700003 .44200004 .279 .44200004 L .19100002 .44200004 C .227 .584 .23200003 .60400006 .23200003 .61 C .23200003 .62700006 .22000002 .637 .20300001 .637 C .2 .637 .172 .636 .163 .601 L .124 .44200004 L .030000002 .44200004 C .009999998 .44200004 0 .44200004 0 .42300005 C 0 .411 .007999999 .411 .028 .411 L .11600001 .411 C .044 .127 .04 .11000001 .04 .092 C .04 .038000004 .078 0 .132 0 C .234 0 .291 .14600002 .291 .15400002 C .291 .16400002 .28300003 .16400002 .279 .16400002 C .27 .16400002 .26900003 .16100002 .264 .15000002 C .22100002 .046 .16800002 .022000002 .134 .022000002 C .113000009 .022000002 .103 .035 .103 .068 C .103 .092 .105000007 .09900001 .109 .116000007 L .18300002 .411 Z "/>
</symbol>
<use xlink:href="#font_2_2" transform="matrix(9.9626,0,0,-9.9626,319.26615,102.55858)"/>
<symbol id="font_2_1">
<path d="M .88400009 .606 C .89300009 .642 .89500007 .652 .9700001 .652 C .9930001 .652 1.002 .652 1.002 .67200008 C 1.002 .683 .99200007 .683 .9750001 .683 L .84300008 .683 C .81700006 .683 .81600007 .683 .804 .66400006 L .43900005 .094000007 L .36100004 .66 C .358 .683 .35600005 .683 .33 .683 L .19300002 .683 C .174 .683 .16300002 .683 .16300002 .66400006 C .16300002 .652 .17200002 .652 .192 .652 C .20500002 .652 .22300002 .651 .23500002 .65000006 C .25100003 .648 .25700004 .64500007 .25700004 .634 C .25700004 .63000008 .256 .62700006 .25300003 .615 L .12600002 .106000009 C .116000007 .066 .099 .034 .018 .031000002 C .013 .031000002 0 .030000002 0 .012 C 0 .003 .0059999974 0 .013999999 0 C .046000005 0 .081 .003 .114 .003 C .148 .003 .18400002 0 .21700001 0 C .222 0 .23500002 0 .23500002 .020000002 C .23500002 .031000002 .224 .031000002 .21700001 .031000002 C .16 .032 .14900002 .052 .14900002 .075 C .14900002 .082 .15 .087000008 .153 .098000008 L .28900004 .643 L .29000003 .643 L .37600003 .023000002 C .37800003 .011000001 .37900005 0 .39100004 0 C .40200005 0 .40800003 .011000001 .41300003 .018000002 L .81700006 .651 L .818 .651 L .675 .078 C .665 .039 .66300007 .031000002 .58400008 .031000002 C .56700006 .031000002 .55600008 .031000002 .55600008 .012 C .55600008 0 .568 0 .57100006 0 C .59900006 0 .66700008 .003 .69500008 .003 C .73600009 .003 .77900007 0 .82000008 0 C .82600006 0 .83900007 0 .83900007 .020000002 C .83900007 .031000002 .83000007 .031000002 .81100007 .031000002 C .77400007 .031000002 .74600008 .031000002 .74600008 .049000004 C .74600008 .053000004 .74600008 .055000005 .75100007 .07300001 L .88400009 .606 Z "/>
</symbol>
<use xlink:href="#font_2_1" transform="matrix(9.9626,0,0,-9.9626,152.86643,10.201996)"/>
</svg>
