<?xml version="1.0" encoding="UTF-8" standalone="no"?>
<!DOCTYPE svg PUBLIC "-//W3C//DTD SVG 1.1//EN" "http://www.w3.org/Graphics/SVG/1.1/DTD/svg11.dtd">
<svg xmlns="http://www.w3.org/2000/svg" xmlns:xlink="http://www.w3.org/1999/xlink" version="1.1" width="65.062pt" height="36.715pt" viewBox="0 0 65.062 36.715">
<path transform="matrix(1,0,0,-1,4.184,32.531)" stroke-width="1" stroke-linecap="butt" stroke-miterlimit="10" stroke-linejoin="miter" fill="none" stroke="#000000" d="M 3.9851 0 C 3.9851 2.20093 2.20093 3.9851 0 3.9851 C -2.20093 3.9851 -3.9851 2.20093 -3.9851 0 C -3.9851 -2.20093 -2.20093 -3.9851 0 -3.9851 C 2.20093 -3.9851 3.9851 -2.20093 3.9851 0 Z M 0 0 "/>
<path transform="matrix(1,0,0,-1,4.184,32.531)" stroke-width="1" stroke-linecap="butt" stroke-miterlimit="10" stroke-linejoin="miter" fill="none" stroke="#000000" d="M 32.33191 0 C 32.33191 2.20093 30.54774 3.9851 28.3468 3.9851 C 26.14586 3.9851 24.3617 2.20093 24.3617 0 C 24.3617 -2.20093 26.14586 -3.9851 28.3468 -3.9851 C 30.54774 -3.9851 32.33191 -2.20093 32.33191 0 Z M 28.3468 0 "/>
<path transform="matrix(1,0,0,-1,4.184,32.531)" stroke-width="1" stroke-linecap="butt" stroke-miterlimit="10" stroke-linejoin="miter" fill="none" stroke="#000000" d="M 60.67873 0 C 60.67873 2.20093 58.89456 3.9851 56.69362 3.9851 C 54.49268 3.9851 52.70851 2.20093 52.70851 0 C 52.70851 -2.20093 54.49268 -3.9851 56.69362 -3.9851 C 58.89456 -3.9851 60.67873 -2.20093 60.67873 0 Z M 56.69362 0 "/>
<path transform="matrix(1,0,0,-1,4.184,32.531)" stroke-width="1" stroke-linecap="butt" stroke-miterlimit="10" stroke-linejoin="miter" fill="none" stroke="#000000" d="M 3.9851 28.3468 C 3.9851 30.54774 2.20093 32.33191 0 32.33191 C -2.20093 32.33191 -3.9851 30.54774 -3.9851 28.3468 C -3.9851 26.14586 -2.20093 24.3617 0 24.3617 C 2.20093 24.3617 3.9851 26.14586 3.9851 28.3468 Z M 0 28.3468 "/>
<path transform="matrix(1,0,0,-1,4.184,32.531)" stroke-width="1" stroke-linecap="butt" stroke-miterlimit="10" stroke-linejoin="miter" fill="none" stroke="#000000" d="M 32.33191 28.3468 C 32.33191 30.54774 30.54774 32.33191 28.3468 32.33191 C 26.14586 32.33191 24.3617 30.54774 24.3617 28.3468 C 24.3617 26.14586 26.14586 24.3617 28.3468 24.3617 C 30.54774 24.3617 32.33191 26.14586 32.33191 28.3468 Z M 28.3468 28.3468 "/>
<path transform="matrix(1,0,0,-1,4.184,32.531)" stroke-width="1" stroke-linecap="butt" stroke-miterlimit="10" stroke-linejoin="miter" fill="none" stroke="#000000" d="M 60.67873 28.3468 C 60.67873 30.54774 58.89456 32.33191 56.69362 32.33191 C 54.49268 32.33191 52.70851 30.54774 52.70851 28.3468 C 52.70851 26.14586 54.49268 24.3617 56.69362 24.3617 C 58.89456 24.3617 60.67873 26.14586 60.67873 28.3468 Z M 56.69362 28.3468 "/>
</svg>
