<?xml version="1.0" encoding="UTF-8" standalone="no"?>
<!DOCTYPE svg PUBLIC "-//W3C//DTD SVG 1.1//EN" "http://www.w3.org/Graphics/SVG/1.1/DTD/svg11.dtd">
<svg xmlns="http://www.w3.org/2000/svg" xmlns:xlink="http://www.w3.org/1999/xlink" version="1.1" width="403.764pt" height="36.645pt" viewBox="0 0 403.764 36.645">
<path transform="matrix(1,0,0,-1,9.686,34.009)" stroke-width="1" stroke-linecap="butt" stroke-miterlimit="10" stroke-linejoin="miter" fill="none" stroke="#929292" d="M 0 11.45549 L 0 15.70738 M 38.71791 11.45549 L 38.71791 15.70738 M 77.43584 11.45549 L 77.43584 15.70738 M 116.15375 11.45549 L 116.15375 15.70738 M 154.87168 11.45549 L 154.87168 15.70738 M 232.30751 11.45549 L 232.30751 15.70738 M 271.02543 11.45549 L 271.02543 15.70738 M 309.74336 11.45549 L 309.74336 15.70738 M 348.46128 11.45549 L 348.46128 15.70738 M 387.17918 11.45549 L 387.17918 15.70738 "/>
<path transform="matrix(1,0,0,-1,9.686,34.009)" stroke-width="1" stroke-linecap="butt" stroke-miterlimit="10" stroke-linejoin="miter" fill="none" stroke="#000000" d="M 0 13.58144 L 385.18046 13.58144 "/>
<path transform="matrix(1,0,0,-1,394.86647,20.427559)" d="M 1.99252 0 L -1.19551 1.59401 L 0 0 L -1.19551 -1.59401 "/>
<path transform="matrix(1,0,0,-1,9.686,34.009)" stroke-width="1" stroke-linecap="butt" stroke-miterlimit="10" stroke-linejoin="miter" fill="none" stroke="#000000" d="M 193.58959 0 L 193.58959 25.17036 "/>
<path transform="matrix(0,-1,-1,-0,203.27559,8.838638)" d="M 1.99252 0 L -1.19551 1.59401 L 0 0 L -1.19551 -1.59401 "/>
<symbol id="font_0_1">
<path d="M .57600006 0 C .59300008 0 .611 0 .611 .019999996 C .611 .040000008 .59300008 .040000008 .57600006 .040000008 L .035000005 .040000008 C .018 .040000008 0 .040000008 0 .019999996 C 0 0 .018 0 .035000005 0 L .57600006 0 Z "/>
</symbol>
<use xlink:href="#font_0_1" transform="matrix(9.9626,0,0,-9.9626,4.147896,30.202603)"/>
<symbol id="font_1_5">
<path d="M .39900003 .223 C .39900003 .34200005 .317 .44200004 .209 .44200004 C .16100002 .44200004 .118000019 .42600004 .082 .39100004 L .082 .586 C .10200001 .58000007 .135 .573 .16700001 .573 C .29 .573 .36 .66400006 .36 .67700007 C .36 .683 .357 .688 .35 .688 C .349 .688 .347 .688 .342 .68500009 C .322 .67600008 .273 .656 .20600002 .656 C .16600001 .656 .120000008 .66300007 .073 .6840001 C .065 .68700006 .06300001 .68700006 .061000009 .68700006 C .051000004 .68700006 .051000004 .679 .051000004 .66300007 L .051000004 .36700005 C .051000004 .34900005 .051000004 .34100003 .065 .34100003 C .07200001 .34100003 .074 .34400005 .07800001 .35000003 C .08900002 .36600004 .12600002 .42000006 .207 .42000006 C .259 .42000006 .284 .37400005 .292 .35600005 C .308 .31900005 .31 .28000004 .31 .23 C .31 .19500001 .31 .135 .286 .093 C .262 .054000006 .22500001 .028 .17900002 .028 C .106000009 .028 .049000008 .08100001 .032 .14000002 C .035 .13900002 .038000008 .13800001 .049000008 .13800001 C .082 .13800001 .09900001 .163 .09900001 .187 C .09900001 .21100001 .082 .23600002 .049000008 .23600002 C .035 .23600002 0 .22900002 0 .18300002 C 0 .097 .069000009 0 .18100001 0 C .297 0 .39900003 .096 .39900003 .223 Z "/>
</symbol>
<use xlink:href="#font_1_5" transform="matrix(9.9626,0,0,-9.9626,11.56713,32.713178)"/>
<use xlink:href="#font_0_1" transform="matrix(9.9626,0,0,-9.9626,42.8649,30.202603)"/>
<symbol id="font_1_4">
<path d="M .266 .165 L .266 .078 C .266 .042000005 .26400004 .031000002 .19000001 .031000002 L .16900002 .031000002 L .16900002 0 C .21000001 .003 .26200003 .003 .30400003 .003 C .34600003 .003 .39900003 .003 .44000004 0 L .44000004 .031000002 L .41900004 .031000002 C .34500004 .031000002 .34300003 .042000005 .34300003 .078 L .34300003 .165 L .44300003 .165 L .44300003 .19600001 L .34300003 .19600001 L .34300003 .651 C .34300003 .671 .34300003 .67700007 .32700003 .67700007 C .31800003 .67700007 .31500004 .67700007 .307 .665 L 0 .19600001 L 0 .165 L .266 .165 M .272 .19600001 L .028 .19600001 L .272 .569 L .272 .19600001 Z "/>
</symbol>
<use xlink:href="#font_1_4" transform="matrix(9.9626,0,0,-9.9626,50.065958,32.494)"/>
<use xlink:href="#font_0_1" transform="matrix(9.9626,0,0,-9.9626,81.581897,30.202603)"/>
<symbol id="font_1_3">
<path d="M .24800003 .37400005 C .33 .40100003 .388 .47100006 .388 .55 C .388 .632 .3 .688 .204 .688 C .10300001 .688 .027000003 .628 .027000003 .55200007 C .027000003 .519 .049000004 .5 .078 .5 C .109000008 .5 .12900001 .522 .12900001 .55100008 C .12900001 .6010001 .082 .6010001 .067 .6010001 C .098 .65000006 .164 .66300007 .20000002 .66300007 C .24100003 .66300007 .29600004 .64100006 .29600004 .55100008 C .29600004 .53900006 .29400004 .48100005 .268 .43700005 C .238 .38900004 .204 .38600005 .17900002 .38500003 C .171 .38400004 .14700002 .38200004 .14000002 .38200004 C .132 .38100005 .125 .38000003 .125 .37000004 C .125 .35900004 .132 .35900004 .14900002 .35900004 L .19300002 .35900004 C .275 .35900004 .312 .29100005 .312 .193 C .312 .057000005 .24300003 .028 .199 .028 C .15600002 .028 .081 .045 .046000005 .104 C .081 .09900001 .11200001 .12100001 .11200001 .15900001 C .11200001 .19500001 .085 .215 .056 .215 C .031999999 .215 0 .201 0 .157 C 0 .06600001 .093 0 .20200002 0 C .32400004 0 .41500003 .091000009 .41500003 .193 C .41500003 .27500005 .35200004 .35300005 .24800003 .37400005 Z "/>
</symbol>
<use xlink:href="#font_1_3" transform="matrix(9.9626,0,0,-9.9626,88.922428,32.713178)"/>
<use xlink:href="#font_0_1" transform="matrix(9.9626,0,0,-9.9626,120.2999,30.202603)"/>
<symbol id="font_1_2">
<path d="M .07700001 .07700001 L .18300002 .18 C .33900003 .31800003 .39900003 .372 .39900003 .47200004 C .39900003 .586 .30900003 .666 .18700002 .666 C .074 .666 0 .574 0 .485 C 0 .42900003 .05 .42900003 .053000008 .42900003 C .07000001 .42900003 .105000007 .441 .105000007 .48200003 C .105000007 .508 .08700001 .53400006 .052000006 .53400006 C .044000005 .53400006 .042000008 .53400006 .039 .53300008 C .062000004 .59800007 .11600001 .63500007 .17400001 .63500007 C .26500003 .63500007 .308 .554 .308 .47200004 C .308 .39200003 .25800003 .31300003 .20300003 .25100003 L .011000004 .037 C 0 .026 0 .024 0 0 L .37100003 0 L .39900003 .17400001 L .374 .17400001 C .36900003 .14400001 .36200003 .1 .352 .085 C .345 .07700001 .279 .07700001 .257 .07700001 L .07700001 .07700001 Z "/>
</symbol>
<use xlink:href="#font_1_2" transform="matrix(9.9626,0,0,-9.9626,127.72013,32.494)"/>
<use xlink:href="#font_0_1" transform="matrix(9.9626,0,0,-9.9626,159.01689,30.202603)"/>
<symbol id="font_1_1">
<path d="M .205 .64000007 C .205 .66400006 .205 .666 .18200003 .666 C .120000008 .60200008 .032000007 .60200008 0 .60200008 L 0 .57100006 C .020000004 .57100006 .07900001 .57100006 .13100001 .597 L .13100001 .079 C .13100001 .043 .128 .031000002 .038000004 .031000002 L .0060000049 .031000002 L .0060000049 0 C .04100001 .003 .128 .003 .168 .003 C .20800002 .003 .29500003 .003 .33000005 0 L .33000005 .031000002 L .29800005 .031000002 C .20800002 .031000002 .205 .042000005 .205 .079 L .205 .64000007 Z "/>
</symbol>
<use xlink:href="#font_1_1" transform="matrix(9.9626,0,0,-9.9626,166.82567,32.494)"/>
<use xlink:href="#font_1_1" transform="matrix(9.9626,0,0,-9.9626,240.38568,32.494)"/>
<use xlink:href="#font_1_2" transform="matrix(9.9626,0,0,-9.9626,278.71516,32.494)"/>
<use xlink:href="#font_1_3" transform="matrix(9.9626,0,0,-9.9626,317.35243,32.713178)"/>
<use xlink:href="#font_1_4" transform="matrix(9.9626,0,0,-9.9626,355.93098,32.494)"/>
<use xlink:href="#font_1_5" transform="matrix(9.9626,0,0,-9.9626,394.86717,32.713178)"/>
<path transform="matrix(1,0,0,-1,9.686,34.009)" stroke-width="1" stroke-linecap="butt" stroke-miterlimit="10" stroke-linejoin="miter" fill="none" stroke="#000000" d="M 0 13.58144 L 16.1322 13.58144 L 32.2644 13.58144 L 48.39662 13.58144 L 64.52882 13.58144 L 80.66103 13.58144 L 96.79324 13.58144 L 112.92545 13.58144 L 129.05765 13.58144 L 145.18987 13.58144 L 161.32207 13.58144 L 177.45427 13.58144 L 193.58649 13.58144 L 209.71869 13.58144 L 225.8509 13.58144 L 241.98311 13.58144 L 258.1153 13.58144 L 274.24754 13.58144 L 290.37974 13.58144 L 306.51194 13.58144 L 322.64418 13.58144 L 338.77635 13.58144 L 354.90855 13.58144 L 371.04078 13.58144 L 387.17298 13.58144 "/>
<path transform="matrix(1,0,0,-1,9.686,34.009)" stroke-width="1" stroke-linecap="butt" stroke-miterlimit="10" stroke-linejoin="miter" fill="none" stroke="#000000" d="M 193.58959 0 L 193.58959 27.16289 "/>
<path transform="matrix(1,0,0,-1,9.686,34.009)" stroke-width="1.19553" stroke-linecap="butt" stroke-miterlimit="10" stroke-linejoin="miter" fill="none" stroke="#000080" d="M 193.58959 18.10858 L 195.2028 18.10858 L 196.81603 18.10858 L 198.42925 18.10858 L 200.04247 18.10858 L 201.65569 18.10858 L 203.2689 18.10858 L 204.88211 18.10858 L 206.49533 18.10858 L 208.10857 18.10858 L 209.72179 18.10858 L 211.335 18.10858 L 212.94823 18.10858 L 214.56145 18.10858 L 216.17467 18.10858 L 217.78789 18.10858 L 219.40113 18.10858 L 221.01433 18.10858 L 222.62755 18.10858 L 224.24077 18.10858 L 225.85399 18.10858 L 227.46721 18.10858 L 229.08045 18.10858 L 230.69367 18.10858 L 232.30689 18.10858 "/>
<path transform="matrix(1,0,0,-1,9.686,34.009)" d="M 195.58214 18.10858 C 195.58214 19.20906 194.69007 20.10114 193.58959 20.10114 C 192.48912 20.10114 191.59703 19.20906 191.59703 18.10858 C 191.59703 17.00812 192.48912 16.11603 193.58959 16.11603 C 194.69007 16.11603 195.58214 17.00812 195.58214 18.10858 Z M 193.58959 18.10858 " fill="#000080"/>
<path transform="matrix(1,0,0,-1,9.686,34.009)" stroke-width="1" stroke-linecap="butt" stroke-miterlimit="10" stroke-linejoin="miter" fill="none" stroke="#000080" d="M 195.58214 18.10858 C 195.58214 19.20906 194.69007 20.10114 193.58959 20.10114 C 192.48912 20.10114 191.59703 19.20906 191.59703 18.10858 C 191.59703 17.00812 192.48912 16.11603 193.58959 16.11603 C 194.69007 16.11603 195.58214 17.00812 195.58214 18.10858 Z M 193.58959 18.10858 "/>
<path transform="matrix(1,0,0,-1,9.686,34.009)" d="M 234.30007 18.10858 C 234.30007 19.20906 233.40798 20.10114 232.30751 20.10114 C 231.20703 20.10114 230.31496 19.20906 230.31496 18.10858 C 230.31496 17.00812 231.20703 16.11603 232.30751 16.11603 C 233.40798 16.11603 234.30007 17.00812 234.30007 18.10858 Z M 232.30751 18.10858 " fill="#ffffff"/>
<path transform="matrix(1,0,0,-1,9.686,34.009)" stroke-width="1" stroke-linecap="butt" stroke-miterlimit="10" stroke-linejoin="miter" fill="none" stroke="#000080" d="M 234.30007 18.10858 C 234.30007 19.20906 233.40798 20.10114 232.30751 20.10114 C 231.20703 20.10114 230.31496 19.20906 230.31496 18.10858 C 230.31496 17.00812 231.20703 16.11603 232.30751 16.11603 C 233.40798 16.11603 234.30007 17.00812 234.30007 18.10858 Z M 232.30751 18.10858 "/>
</svg>
