<?xml version="1.0" encoding="UTF-8" standalone="no"?>
<!DOCTYPE svg PUBLIC "-//W3C//DTD SVG 1.1//EN" "http://www.w3.org/Graphics/SVG/1.1/DTD/svg11.dtd">
<svg xmlns="http://www.w3.org/2000/svg" xmlns:xlink="http://www.w3.org/1999/xlink" version="1.1" width="329.831pt" height="192.007pt" viewBox="0 0 329.831 192.007">
<path transform="matrix(1,0,0,-1,.199,184.987)" stroke-width="1" stroke-linecap="butt" stroke-miterlimit="10" stroke-linejoin="miter" fill="none" stroke="#929292" d="M 31.51825 83.45815 L 31.51825 87.71002 M 63.03651 83.45815 L 63.03651 87.71002 M 94.55478 83.45815 L 94.55478 87.71002 M 126.07304 83.45815 L 126.07304 87.71002 M 189.10956 83.45815 L 189.10956 87.71002 M 220.62783 83.45815 L 220.62783 87.71002 M 252.14609 83.45815 L 252.14609 87.71002 M 283.66435 83.45815 L 283.66435 87.71002 "/>
<path transform="matrix(1,0,0,-1,.199,184.987)" stroke-width="1" stroke-linecap="butt" stroke-miterlimit="10" stroke-linejoin="miter" fill="none" stroke="#929292" d="M 155.4654 0 L 159.7172 0 M 155.4654 28.52803 L 159.7172 28.52803 M 155.4654 57.05606 L 159.7172 57.05606 M 155.4654 114.11212 L 159.7172 114.11212 M 155.4654 142.64015 L 159.7172 142.64015 M 155.4654 171.16819 L 159.7172 171.16819 "/>
<path transform="matrix(1,0,0,-1,.199,184.987)" stroke-width="1" stroke-linecap="butt" stroke-miterlimit="10" stroke-linejoin="miter" fill="none" stroke="#000000" d="M 0 85.58409 L 313.18504 85.58409 "/>
<path transform="matrix(1,0,0,-1,313.38404,99.40291)" d="M 1.99252 0 L -1.19551 1.59401 L 0 0 L -1.19551 -1.59401 "/>
<path transform="matrix(1,0,0,-1,.199,184.987)" stroke-width="1" stroke-linecap="butt" stroke-miterlimit="10" stroke-linejoin="miter" fill="none" stroke="#000000" d="M 157.59131 0 L 157.59131 169.17566 "/>
<path transform="matrix(0,-1,-1,-0,157.79032,15.81134)" d="M 1.99252 0 L -1.19551 1.59401 L 0 0 L -1.19551 -1.59401 "/>
<symbol id="font_0_1">
<path d="M .57600006 0 C .59300008 0 .611 0 .611 .019999996 C .611 .040000008 .59300008 .040000008 .57600006 .040000008 L .035000005 .040000008 C .018 .040000008 0 .040000008 0 .019999996 C 0 0 .018 0 .035000005 0 L .57600006 0 Z "/>
</symbol>
<use xlink:href="#font_0_1" transform="matrix(9.9626,0,0,-9.9626,26.178896,109.252597)"/>
<symbol id="font_1_4">
<path d="M .266 .165 L .266 .078 C .266 .042000005 .26400004 .031000002 .19000001 .031000002 L .16900002 .031000002 L .16900002 0 C .21000001 .003 .26200003 .003 .30400003 .003 C .34600003 .003 .39900003 .003 .44000004 0 L .44000004 .031000002 L .41900004 .031000002 C .34500004 .031000002 .34300003 .042000005 .34300003 .078 L .34300003 .165 L .44300003 .165 L .44300003 .19600001 L .34300003 .19600001 L .34300003 .651 C .34300003 .671 .34300003 .67700007 .32700003 .67700007 C .31800003 .67700007 .31500004 .67700007 .307 .665 L 0 .19600001 L 0 .165 L .266 .165 M .272 .19600001 L .028 .19600001 L .272 .569 L .272 .19600001 Z "/>
</symbol>
<use xlink:href="#font_1_4" transform="matrix(9.9626,0,0,-9.9626,33.37995,111.54399)"/>
<use xlink:href="#font_0_1" transform="matrix(9.9626,0,0,-9.9626,57.6969,109.252597)"/>
<symbol id="font_1_3">
<path d="M .24800003 .37400005 C .33 .40100003 .388 .47100006 .388 .55 C .388 .632 .3 .688 .204 .688 C .10300001 .688 .027000003 .628 .027000003 .55200007 C .027000003 .519 .049000004 .5 .078 .5 C .109000008 .5 .12900001 .522 .12900001 .55100008 C .12900001 .6010001 .082 .6010001 .067 .6010001 C .098 .65000006 .164 .66300007 .20000002 .66300007 C .24100003 .66300007 .29600004 .64100006 .29600004 .55100008 C .29600004 .53900006 .29400004 .48100005 .268 .43700005 C .238 .38900004 .204 .38600005 .17900002 .38500003 C .171 .38400004 .14700002 .38200004 .14000002 .38200004 C .132 .38100005 .125 .38000003 .125 .37000004 C .125 .35900004 .132 .35900004 .14900002 .35900004 L .19300002 .35900004 C .275 .35900004 .312 .29100005 .312 .193 C .312 .057000005 .24300003 .028 .199 .028 C .15600002 .028 .081 .045 .046000005 .104 C .081 .09900001 .11200001 .12100001 .11200001 .15900001 C .11200001 .19500001 .085 .215 .056 .215 C .031999999 .215 0 .201 0 .157 C 0 .06600001 .093 0 .20200002 0 C .32400004 0 .41500003 .091000009 .41500003 .193 C .41500003 .27500005 .35200004 .35300005 .24800003 .37400005 Z "/>
</symbol>
<use xlink:href="#font_1_3" transform="matrix(9.9626,0,0,-9.9626,65.03743,111.76317)"/>
<use xlink:href="#font_0_1" transform="matrix(9.9626,0,0,-9.9626,89.2149,109.252597)"/>
<symbol id="font_1_2">
<path d="M .07700001 .07700001 L .18300002 .18 C .33900003 .31800003 .39900003 .372 .39900003 .47200004 C .39900003 .586 .30900003 .666 .18700002 .666 C .074 .666 0 .574 0 .485 C 0 .42900003 .05 .42900003 .053000008 .42900003 C .07000001 .42900003 .105000007 .441 .105000007 .48200003 C .105000007 .508 .08700001 .53400006 .052000006 .53400006 C .044000005 .53400006 .042000008 .53400006 .039 .53300008 C .062000004 .59800007 .11600001 .63500007 .17400001 .63500007 C .26500003 .63500007 .308 .554 .308 .47200004 C .308 .39200003 .25800003 .31300003 .20300003 .25100003 L .011000004 .037 C 0 .026 0 .024 0 0 L .37100003 0 L .39900003 .17400001 L .374 .17400001 C .36900003 .14400001 .36200003 .1 .352 .085 C .345 .07700001 .279 .07700001 .257 .07700001 L .07700001 .07700001 Z "/>
</symbol>
<use xlink:href="#font_1_2" transform="matrix(9.9626,0,0,-9.9626,96.63513,111.54399)"/>
<use xlink:href="#font_0_1" transform="matrix(9.9626,0,0,-9.9626,120.732898,109.252597)"/>
<symbol id="font_1_1">
<path d="M .205 .64000007 C .205 .66400006 .205 .666 .18200003 .666 C .120000008 .60200008 .032000007 .60200008 0 .60200008 L 0 .57100006 C .020000004 .57100006 .07900001 .57100006 .13100001 .597 L .13100001 .079 C .13100001 .043 .128 .031000002 .038000004 .031000002 L .0060000049 .031000002 L .0060000049 0 C .04100001 .003 .128 .003 .168 .003 C .20800002 .003 .29500003 .003 .33000005 0 L .33000005 .031000002 L .29800005 .031000002 C .20800002 .031000002 .205 .042000005 .205 .079 L .205 .64000007 Z "/>
</symbol>
<use xlink:href="#font_1_1" transform="matrix(9.9626,0,0,-9.9626,128.54067,111.54399)"/>
<use xlink:href="#font_1_1" transform="matrix(9.9626,0,0,-9.9626,187.70269,111.54399)"/>
<use xlink:href="#font_1_2" transform="matrix(9.9626,0,0,-9.9626,218.83213,111.54399)"/>
<use xlink:href="#font_1_3" transform="matrix(9.9626,0,0,-9.9626,250.26943,111.76317)"/>
<use xlink:href="#font_1_4" transform="matrix(9.9626,0,0,-9.9626,281.64799,111.54399)"/>
<use xlink:href="#font_0_1" transform="matrix(9.9626,0,0,-9.9626,140.1659,185.4906)"/>
<use xlink:href="#font_1_3" transform="matrix(9.9626,0,0,-9.9626,147.50643,188.00118)"/>
<use xlink:href="#font_0_1" transform="matrix(9.9626,0,0,-9.9626,140.1659,156.96361)"/>
<use xlink:href="#font_1_2" transform="matrix(9.9626,0,0,-9.9626,147.58612,159.255)"/>
<use xlink:href="#font_0_1" transform="matrix(9.9626,0,0,-9.9626,140.1659,128.43561)"/>
<use xlink:href="#font_1_1" transform="matrix(9.9626,0,0,-9.9626,147.97467,130.727)"/>
<use xlink:href="#font_1_1" transform="matrix(9.9626,0,0,-9.9626,147.97469,74.08699)"/>
<use xlink:href="#font_1_2" transform="matrix(9.9626,0,0,-9.9626,147.58614,45.559007)"/>
<use xlink:href="#font_1_3" transform="matrix(9.9626,0,0,-9.9626,147.50644,17.250184)"/>
<path transform="matrix(1,0,0,-1,.199,184.987)" stroke-width="1" stroke-linecap="butt" stroke-miterlimit="10" stroke-linejoin="miter" fill="none" stroke="#000000" d="M 0 85.58409 L 13.13239 85.58409 L 26.26479 85.58409 L 39.39719 85.58409 L 52.52957 85.58409 L 65.66197 85.58409 L 78.79439 85.58409 L 91.92679 85.58409 L 105.05917 85.58409 L 118.19157 85.58409 L 131.32398 85.58409 L 144.45638 85.58409 L 157.58878 85.58409 L 170.72118 85.58409 L 183.85358 85.58409 L 196.98596 85.58409 L 210.11837 85.58409 L 223.25078 85.58409 L 236.38317 85.58409 L 249.51557 85.58409 L 262.64796 85.58409 L 275.78038 85.58409 L 288.91279 85.58409 L 302.04518 85.58409 L 315.17759 85.58409 "/>
<path transform="matrix(1,0,0,-1,.199,184.987)" stroke-width="1" stroke-linecap="butt" stroke-miterlimit="10" stroke-linejoin="miter" fill="none" stroke="#000000" d="M 157.59131 0 L 157.59131 171.16819 "/>
<path transform="matrix(1,0,0,-1,.199,184.987)" d="M 222.62038 57.05606 C 222.62038 58.15652 221.7283 59.04861 220.62783 59.04861 C 219.52736 59.04861 218.63527 58.15652 218.63527 57.05606 C 218.63527 55.95558 219.52736 55.0635 220.62783 55.0635 C 221.7283 55.0635 222.62038 55.95558 222.62038 57.05606 Z M 220.62783 57.05606 " fill="#000080"/>
<path transform="matrix(1,0,0,-1,.199,184.987)" stroke-width="1" stroke-linecap="butt" stroke-miterlimit="10" stroke-linejoin="miter" fill="none" stroke="#000080" d="M 222.62038 57.05606 C 222.62038 58.15652 221.7283 59.04861 220.62783 59.04861 C 219.52736 59.04861 218.63527 58.15652 218.63527 57.05606 C 218.63527 55.95558 219.52736 55.0635 220.62783 55.0635 C 221.7283 55.0635 222.62038 55.95558 222.62038 57.05606 Z M 220.62783 57.05606 "/>
<symbol id="font_2_2">
<path d="M .433 .35000003 C .438 .37200005 .448 .40900005 .448 .41500003 C .448 .43300004 .43400003 .44200004 .419 .44200004 C .407 .44200004 .389 .43400003 .382 .41400004 C .379 .40700004 .33200003 .21600002 .325 .19000001 C .318 .16000001 .316 .14200002 .316 .124000009 C .316 .113000009 .316 .111 .317 .106000009 C .294 .053000004 .264 .022000002 .22500001 .022000002 C .14500001 .022000002 .14500001 .096 .14500001 .113000009 C .14500001 .14500001 .15 .18400002 .19700001 .307 C .20800002 .337 .21400002 .351 .21400002 .37100003 C .21400002 .41600005 .18100001 .45300005 .13200002 .45300005 C .037 .45300005 0 .30800004 0 .29900003 C 0 .28900004 .01 .28900004 .012 .28900004 C .022000002 .28900004 .023 .291 .028000003 .307 C .055000009 .40000005 .094000007 .43100003 .12900001 .43100003 C .13800001 .43100003 .15400002 .43000005 .15400002 .39800004 C .15400002 .37300004 .143 .34500004 .136 .328 C .09200001 .21000003 .080000009 .16400002 .080000009 .126 C .080000009 .035 .14700002 0 .22200002 0 C .23900001 0 .286 0 .326 .07000001 C .352 .0060000007 .421 0 .451 0 C .526 0 .57000008 .063 .596 .123 C .63000008 .20100002 .66200008 .335 .66200008 .38300003 C .66200008 .43800003 .63500007 .45300005 .61800006 .45300005 C .59300008 .45300005 .568 .42700003 .568 .40500004 C .568 .39200003 .57400009 .38600005 .58300009 .37800003 C .59400007 .367 .619 .34100003 .619 .293 C .619 .259 .59000006 .16100002 .56400009 .11000001 C .53800007 .057000005 .503 .022000002 .454 .022000002 C .407 .022000002 .38 .052 .38 .109000008 C .38 .13700001 .387 .16800002 .391 .18200001 L .433 .35000003 Z "/>
</symbol>
<use xlink:href="#font_2_2" transform="matrix(9.9626,0,0,-9.9626,319.32594,101.63958)"/>
<symbol id="font_2_1">
<path d="M .40300004 .60700008 C .41000004 .63500007 .41400004 .64100006 .42600004 .64400008 C .43500004 .646 .46800003 .646 .48900003 .646 C .59000006 .646 .63500007 .642 .63500007 .564 C .63500007 .549 .63100007 .51000007 .62700006 .48400004 C .62600007 .48000003 .624 .46800003 .624 .46500004 C .624 .45900003 .62700006 .45200003 .63600006 .45200003 C .647 .45200003 .64900007 .46 .651 .47500003 L .67800006 .64900007 C .679 .65300008 .68000009 .66300007 .68000009 .666 C .68000009 .67700007 .67 .67700007 .65300008 .67700007 L .098000008 .67700007 C .074 .67700007 .073 .67600008 .066 .657 L .006000001 .48100005 C .005000001 .47900004 0 .46500004 0 .46300004 C 0 .45700003 .005000001 .45200003 .012000002 .45200003 C .022000004 .45200003 .023000002 .45700003 .029000003 .47300003 C .083000008 .628 .109 .646 .25700004 .646 L .29600004 .646 C .32400004 .646 .32400004 .642 .32400004 .634 C .32400004 .628 .32100005 .61600008 .32000003 .61300006 L .186 .079 C .177 .042000005 .17400001 .031000002 .067 .031000002 C .031000004 .031000002 .025000003 .031000002 .025000003 .012 C .025000003 0 .036000004 0 .042 0 C .069000009 0 .097 .002 .124 .002 C .15200001 .002 .18100001 .003 .209 .003 C .237 .003 .26500003 .002 .29200004 .002 C .32100005 .002 .35100005 0 .37900005 0 C .38900004 0 .40100003 0 .40100003 .020000002 C .40100003 .031000002 .39300005 .031000002 .36700005 .031000002 C .34200005 .031000002 .32900004 .031000002 .30300004 .033 C .27400003 .036000004 .26600004 .039 .26600004 .055000005 C .26600004 .056 .26600004 .061000006 .27 .076000008 L .40300004 .60700008 Z "/>
</symbol>
<use xlink:href="#font_2_1" transform="matrix(9.9626,0,0,-9.9626,154.46012,10.201996)"/>
</svg>
